<?xml version="1.0" encoding="utf-8"?>
<!-- Generator: Adobe Illustrator 26.0.3, SVG Export Plug-In . SVG Version: 6.00 Build 0)  -->
<svg version="1.1" id="Layer_1" xmlns="http://www.w3.org/2000/svg" xmlns:xlink="http://www.w3.org/1999/xlink" x="0px" y="0px"
	 viewBox="0 0 1500 1500" style="enable-background:new 0 0 1500 1500;" xml:space="preserve">
<style type="text/css">
	.st0{fill:#C9C9C9;}
</style>
<path class="st0" d="M1.3,1288c20.5-0.8,31.4-15.1,38.5-31.1c5.5-12.4,13.9-19.8,24.9-25.2c15.9-7.9,33.3-10.9,50.5-14
	c67.3-11.9,130-37.1,190.3-68.3c18.7-9.7,35.9-22.5,51.4-37.1c5.2-4.9,11-8.8,18.1-9.6c24-2.8,41.4-16.5,55.4-34.7
	c8.2-10.6,17.7-19,29.5-25c8.7-4.4,14.7-11.3,19-20c12.4-24.9,19.3-52,30.6-77.3c5.5-12.3,12.2-23,25.2-28.5
	c7.3-3.1,10.1-8.8,10-16.5c-0.2-16.3-0.2-32.6-0.1-48.9c0-5.9-1.5-11.1-4.2-16.3c-19.8-38.2-29.7-79.2-32.8-121.9
	c-0.4-4.9-1.6-9.7-1.8-14.5c-0.3-6.2-2.9-8.5-9.3-8c-13.2,1-21-6.9-27-17.5c-13.4-24.1-17.6-50.7-21.6-77.3
	c-4.4-29.8-10.5-59.4-11.1-89.7c-0.3-12.1,2.5-22.8,12.6-30.3c6.1-4.5,5.1-10.5,4.5-16.6c-6.5-68.1,0.6-135,16.9-201.2
	c8.2-33.3,24.3-62.1,49.8-85.3c28.4-26,59.7-47.8,93.5-66.3c26.9-14.7,56.3-19.1,85.9-21.7c53.4-4.6,107.1-5.2,158.7,11
	c31.3,9.8,62,22.8,89.3,41.9c6.1,4.2,12,9,15.1,15.7c9.8,21.3,22.7,40.5,36.9,58.9c28.5,36.9,39.6,79.7,43.4,125.2
	c2.7,32.1,5.5,64.1,4.8,96.4c-0.1,4.1,0.1,8.3-0.8,12.2c-3.2,13.8-4.3,25.8,8.6,37.1c9.6,8.5,7.9,22.8,6.6,34.9
	c-4.5,41.3-10.9,82.4-19.7,123c-3,14-8.9,27.1-17.5,38.8c-5.2,7-11.9,11.6-20.8,10.4c-7.6-1-9.9,1.9-10.8,9
	c-2.7,22.2-5.4,44.5-9.2,66.5c-3.9,22.6-13.1,43.8-22.8,64.4c-5.1,10.8-7.3,21.3-6.7,32.9c0.4,7.7,0.7,15.6-0.1,23.2
	c-1.6,16.3,0.8,29.6,18.6,36.1c7.1,2.6,10.4,10,13.7,16.7c11.3,22.7,18.1,47.2,27.4,70.6c6.1,15.3,14.2,28.2,29.7,35.6
	c12.5,5.9,21.3,16.4,29.3,27.2c12.6,17.2,30,26,50.1,30.1c8.3,1.7,14.9,5.3,21.2,11.1c26.3,24.4,56.8,42.5,90,55.5
	c44,17.3,87.3,36.9,134.1,45.5c22.1,4.1,44.3,7,64.9,16.6c11.8,5.5,21.4,11.9,25.1,26.1c3.8,14.8,25,29.6,39.4,30.2
	c0,40-0.3,79.9,0.3,119.9c0.1,8.4-1.7,10-10,10c-309.1-0.3-618.2-0.2-927.4-0.2c-183.5,0-367-0.1-550.5,0.2c-8.4,0-10.2-1.6-10-10
	C1.6,1367.9,1.3,1327.9,1.3,1288z"/>
</svg>
