<?xml version="1.0" encoding="utf-8"?>
<!-- Generator: Adobe Illustrator 26.0.3, SVG Export Plug-In . SVG Version: 6.00 Build 0)  -->
<svg version="1.1" id="Layer_1" xmlns="http://www.w3.org/2000/svg" xmlns:xlink="http://www.w3.org/1999/xlink" x="0px" y="0px"
	 viewBox="0 0 1500 1500" style="enable-background:new 0 0 1500 1500;" xml:space="preserve">
<style type="text/css">
	.st0{fill:#0FAEF0;}
</style>
<g>
	<path class="st0" d="M412.7,429.8c5,26.6,12.4,56.5,23.1,88.4c12.4,37.3,26.9,69.5,40.8,96.4c205.2-69.2,404.3-136,603.6-202.9
		c20.4-6.8,42.6-19.2,62.1-16c8.9,1.5,15.1,4.1,17.4,5c14.8,7.4,22.5,19.5,25.7,25.4c3.8,6.8,10.9,21.9,6.2,38.1
		c-3.8,13.3-13,22.8-21,26.6c-62.4,28.1-128.3,49.7-194,69.8c-42.3,13-59.4,39-49.7,79.5c26.3,110,47.3,219.7,140.8,302.2
		c128,112.7,106.2,94.6,32.5,227.1c-24.8,44.7-51.2,88.7-77.5,132.2c-21,34.3-52.6,43.5-86.1,23.4c-32.8-19.8-41.1-51.5-21-86.9
		c25.1-44.4,54.4-86.9,75.1-133.4c5.9-13.3,9.2-42.9-7.1-65.7c-18.9-26.6-62.4-36.4-84.3-21c-18,12.7-18.9,40.2-19.5,51.8
		c0,0-5.6,189-120.4,383.3c-20.7,34.9-48.5,61.2-91.4,35.2c-40.8-24.5-34.6-61.8-18-98.8c2.4-5.3,5.9-10.1,9.5-15.1
		c153.5-214.7,107.1-434.1,13.9-653.5c-6.2-14.5-35.5-29.6-51.5-26.9c-40.2,6.2-79.5,21-118.3,34.9
		c-85.5,30.8-107.6,18.6-131.3-66.5c-19.8-72.2-42.6-126-48.2-144.9c-7.4-26-13.3-47-17.2-60.9c-2.7-26,11.2-50,32.8-59.1
		C365.4,386.3,399.4,399.6,412.7,429.8z"/>
	<path class="st0" d="M712.3,474.2c-54.1,0.3-106.8-46.4-107.1-94.6c-0.3-46.7,53.8-95.8,105.9-96.4c54.4-0.3,97,41.1,97,94.9
		C808.4,433.6,768.2,474.2,712.3,474.2z"/>
	<path class="st0" d="M609.9,72.6c-16.3-37.9-53.8-55.6-93.7-42.3C430.7,59,394.7,178.4,435.5,234.9c4.1,5.9,4.1,18.6,0.6,25.7
		c-16.9,36.7-67.4,125.4-86.4,161.2l32.2,23.1c21-42.3,72.2-133.7,92.6-171.5c2.7-5,12.4-8.3,19.2-8.9
		C577.7,258,643.1,149.7,609.9,72.6z M530.4,210.7c-9.2,6.8-29.9,18-48.2,10.4c-18.3-7.7-29.6-32.5-26-60.6
		c3-13.9,14.8-64.2,56.5-85.2c8.6-4.1,29.3-14.8,46.1-5.6c11.2,6.2,18.9,19.5,19.8,38.7C580.7,150.6,563.8,186.1,530.4,210.7z"/>
	<path class="st0" d="M1140.8,128.5L1094,1c-34.6,29.6-69.2,56.2-100.3,86.6c-15.4,15.1-2.1,40.5,21.3,42c24.5,1.8,49.7,0.3,74.2,0
		C1105.6,129.6,1121.8,129,1140.8,128.5z"/>
</g>
</svg>
