<?xml version="1.0" encoding="utf-8"?>
<!-- Generator: Adobe Illustrator 26.0.3, SVG Export Plug-In . SVG Version: 6.00 Build 0)  -->
<svg version="1.1" id="Layer_1" xmlns="http://www.w3.org/2000/svg" xmlns:xlink="http://www.w3.org/1999/xlink" x="0px" y="0px"
	 viewBox="0 0 3121.4 560" style="enable-background:new 0 0 3121.4 560;" xml:space="preserve">
<style type="text/css">
	.st0{fill:#110641;}
	.st1{fill:url(#SVGID_1_);}
</style>
<g>
	<path class="st0" d="M194.7,209.8c0-5.1,3.9-9,9.2-11.4c19.8-9,39.8-17.9,59.6-26.9c7.2-3.3,12.7,0,18.2,4.1
		c26.7,19.3,53.4,38.3,80,57.8c5.3,3.9,8.1,4.1,11.9-1.8c6.4-9.9,13.4-19.4,20.6-28.9c6.2-8.2,14-9.8,21-4.8
		c6.8,5,7.3,12.9,1.2,21.6c-10.6,14.8-21.1,29.4-31.8,44c-6.8,9.2-13.2,10.4-22.7,3.9c-7.9-5.4-15.7-11.1-23.3-17
		c-4.2-3.1-6.8-4.8-11,2.3c-7.8,13.3-16.7,26.1-26.8,37.8c-6.2,7.2-6.6,9.4-0.1,11.7c10.4,3.6,20.8,7.4,31.1,11.6
		c11.4,4.6,14.3,11.1,9.9,22.8c-8.8,23.6-17.7,47-26.7,70.4c-4.1,10.7-11.1,14.9-19,12c-8.8-3.3-11.2-10.8-7-22.1
		c6.8-18,13.3-36,20.7-53.8c2.2-5.6,1.1-7.8-4.2-9.7c-13.9-5.1-27.8-10.1-41.2-16c-16.4-7.1-19.6-19-9.7-33.9
		c12.4-18.8,24.8-37.7,39.6-54.8c4.8-5.6,2.7-7.3-1.8-11.8c-15.7-16-31.7-17.7-50.3-5.6c-8.2,5.3-17.9,8.9-27.1,12.6
		C204,228.2,194.2,221.8,194.7,209.8z"/>
	<path class="st0" d="M241,304.8c4.4,8.1,8.2,14.9,15.8,18.2c4,1.8,3.3,3.9,1.4,6.9c-7.7,12.6-15.2,25.2-22.9,37.8
		c-2.7,4.3-7,6.3-11.7,7.9c-20.7,6.8-41.2,13.6-61.9,20.3c-11,3.6-18.3,1.2-21.3-6.9c-3.2-8.6,1.3-15.7,12.6-19.6
		c15.7-5.3,31.2-11.2,47.2-15.3c10.3-2.7,16.4-8.1,21.2-17C227.3,326.4,234,316.2,241,304.8z"/>
	<path class="st0" d="M378,171.2c0.1,17.2-13.3,31.1-30.4,31.4c-17.4,0.2-31.8-14.1-31.7-31.6c0.1-16.8,14.3-30.8,31.2-30.9
		C364.2,140.2,377.9,153.9,378,171.2z"/>
</g>
<linearGradient id="SVGID_1_" gradientUnits="userSpaceOnUse" x1="30" y1="486" x2="530" y2="486" gradientTransform="matrix(1 0 0 1 0 -206)">
	<stop  offset="0" style="stop-color:#CCE0F4"/>
	<stop  offset="0.9944" style="stop-color:#0FAEF0"/>
</linearGradient>
<path class="st1" d="M85.6,280c0,107.4,87.1,194.4,194.4,194.4s194.4-87,194.4-194.4S387.4,85.6,280,85.6V30
	c138.1,0,250,111.9,250,250S418.1,530,280,530S30,418.1,30,280H85.6z"/>
<g>
	<path class="st0" d="M798.8,446.4c-5.6,0-10.2-3.6-13.9-10.8c-3.1-6.2-5.9-16.5-8.4-30.9l-5.6-33.2c-4.3-20.6-11-66-20.3-136.2
		l-31.2,116.4l-9.2,36.7c-3.7,14.5-7.6,26.4-11.7,35.7c-4.4,9.8-10.2,14.7-17.6,14.7c-6.1,0-11-4.1-14.5-12.3
		c-2.3-5.4-4.4-12.3-6.2-20.6l-4.5-21.4c-10.5-45.4-19.8-94-27.8-145.9l-5.6,34.5l-20.1,101.9c-0.8,12-3.4,29.7-7.8,53.1
		c-3.1,10-8.3,15-15.4,15c-5.1,0-9.1-2.3-12.2-6.8c-2.6-3.9-3.9-8.6-3.9-14.3c0-21.5,3.6-47.9,10.8-79.1l17.2-77.8l9-60.8
		c4.6-28.4,9.4-47,14.5-55.8c4.2-7.5,9.3-11.2,15.4-11.2c6.8,0,11.8,4.8,15.1,14.3c4.1,11.5,8.4,34.8,13.1,70
		c5.5,42.3,14.1,88.1,25.7,137.4c15.4-49.5,28.7-101.1,39.9-154.8l4.7-28.2c1.9-11.3,4.3-20.5,7.3-27.4c4.1-9.5,9.6-14.3,16.7-14.3
		c8.9,0,15.8,10.7,20.4,32c1.7,7.3,3.7,22.5,6.1,45.5c6.1,58.1,13.8,107.8,22.9,149l7.6,33.2c4,17.8,5.9,28.7,5.9,32.8
		c0,5.5-1.7,10.2-5.1,13.9C806.9,444.5,803.1,446.4,798.8,446.4z"/>
	<path class="st0" d="M907.5,441.8c-17.5,0-32.5-8-45.1-23.9c-14-17.8-21.4-41.6-22.1-71.6c-0.6-29.1,5.3-54.7,17.8-76.8
		c14.6-26.1,34.8-39.2,60.8-39.2c20.8,0,36.5,11.8,47.3,35.3c8.5,19,12.6,41.9,12.3,68.7c-0.3,28.6-6.3,52.9-18.1,73.1
		C947.1,430.3,929.5,441.8,907.5,441.8z M916.9,269.4c-15.3-0.1-27.2,8.9-35.7,27c-6.8,14.5-10.1,31.1-10.1,49.8
		c0,18.7,4.1,33.2,12.3,43.6c6.9,8.6,14.9,12.9,24.2,12.9c10.8,0,20.1-4.9,27.9-14.7c8.8-10.8,13.5-25.4,14-43.8
		C950.9,294.5,940.1,269.6,916.9,269.4z"/>
	<path class="st0" d="M1088.9,420.3c-0.3,11.8-5,17.8-14.2,17.8c-7.6,0-13.1-5.5-16.5-16.6l-23.9-78.3l-27.8-88.6
		c-1-3.3-1.6-6.3-1.6-8.9c0-5.3,1.6-9.8,4.8-13.5c3.2-3.7,7-5.6,11.2-5.6c6.2,0,10.7,3.9,13.4,11.8l39.6,134.9
		c7.8-20.6,17.6-50.4,29.5-89.5c2.8-10.3,7.2-24.8,13.3-43.6c3.2-8.2,7.8-12.3,13.7-12.3c4.3,0,8,1.9,11.2,5.6
		c3.2,3.7,4.8,8.2,4.8,13.3c0,4.9-8.6,32.4-25.7,82.6L1088.9,420.3z"/>
	<path class="st0" d="M1245.2,439.3c-23.5,0-42.5-7.3-57.1-21.8c-15.9-16.1-23.9-38.6-23.9-67.5c0-33.4,6.5-61.5,19.6-84.1
		c14.2-24.7,33.3-37,57.1-37c17.3,0,31.3,3.6,42.3,10.8c13.4,8.9,20.1,22.5,20.1,40.9c0,12.9-5.9,24.6-17.6,35.1
		c-5.2,4.6-16.2,11.8-33.1,21.6l-59.6,34.9c5.8,10.7,13.1,18.7,21.8,24.1c8.7,5.4,18.8,8.1,30.3,8.1c7.2,0,15.6-1.7,25.3-5
		c12.3-4.2,20.2-9.8,23.7-16.7c3.5-6.9,7.3-10.3,11.4-10.3c3.6,0,6.9,1.7,9.7,5.1c2.9,3.4,4.3,7.4,4.3,11.9
		c0,14.3-9.3,26.6-27.9,36.9C1275.7,434.9,1260.2,439.3,1245.2,439.3z M1240.9,263.5c-12.7,0-23.2,6.1-31.7,18.2
		c-8.4,12.2-14.7,30.5-18.9,54.9l47.9-28.2c18.8-11.3,32.2-21.2,40.2-29.5C1269.6,268.6,1257.1,263.5,1240.9,263.5z"/>
	<path class="st0" d="M1564.5,443.1c-2,0-5.6-2.8-10.8-8.5c-4.7-5.3-8.2-10-10.4-14.1c-10,6.7-18.8,11.7-26.4,15.1
		c-7.6,3.4-13.9,5.1-19,5.1c-24.3,0-42.1-8.5-53.2-25.5c-10.5-15.9-15.8-40.4-15.8-73.3c0-31.1,8.7-57.8,26-79.9
		c17.3-22.1,38-33.2,62-33.2c9,0,19.2,2.9,30.4,8.7c14.1,7.2,21.2,15.9,21.2,26c0,3.5-1,6.6-3.1,9.3c-1,4.9-1.8,12.9-2.4,24.1
		c-0.6,11.2-0.9,25.5-1,43c-0.1,16,0.8,28.6,2.7,37.8c1,5.7,4.3,17,9.8,34c0.7,2.3,1.9,5.7,3.6,10.2l0.9,3.3c0,5.1-1.5,9.4-4.4,12.7
		C1571.8,441.4,1568.4,443.1,1564.5,443.1z M1532.1,309c0-5.5,0.3-11.5,0.9-18c0.6-6.5,1.4-13.4,2.6-20.7c-3.8-2.4-7.1-4.2-9.9-5.4
		c-2.8-1.2-5-1.7-6.6-1.7c-16.1,0-30,8.1-41.7,24.4c-11.7,16.3-17.5,35-17.5,56.2c0,21.1,3,36.9,9,47.5c6,10.5,15.1,15.8,27.1,15.8
		c10,0,18.5-2.2,25.4-6.8c3.7-2.4,9-7.3,15.8-14.7C1533.8,351.5,1532.1,326,1532.1,309z"/>
	<path class="st0" d="M1725.8,444.1c-8.9,0-14-6-15.1-18.1l-4.4-42.3c-1.5-15.1-2.2-29.1-2.2-42.3c0-3.6,0.2-9.7,0.5-18.3
		c0.4-8.6,0.5-14.7,0.5-18.3c0-27.8-4.2-41.7-12.5-41.7c-11.6,0-22.8,8.6-33.4,25.7c-9.6,15.6-17.1,35.2-22.5,59
		c-0.2,5-0.7,11.3-1.4,18.9c-0.6,6.4-0.9,12.7-0.9,18.7c0,3.9,0.3,9.6,0.9,17.4c0.6,7.7,0.9,13.5,0.9,17.4c0,5.8-1.4,10.5-4.3,14.1
		c-2.9,3.6-6.5,5.4-11,5.4c-4.6,0-8.3-1.8-11.1-5.4c-2.8-3.6-4.2-8.3-4.2-14.1c0-3.9-0.3-9.6-1-17.4c-0.7-7.7-1-13.5-1-17.4
		c0-13.2,0.8-31.6,2.3-55.1c1.5-23.5,2.3-41.8,2.3-55.1c0-4.1-0.2-10.2-0.5-18.3c-0.4-8.1-0.5-14.2-0.5-18.3
		c0-5.5,1.5-10.1,4.4-13.6c3-3.5,6.6-5.3,11-5.3c9.6,0,14.8,8.4,15.8,25.1l0.5,22.6c17.5-28.8,35.4-43.2,53.8-43.2
		c16.6,0,28.2,9.1,34.8,27.2c4.5,12.1,6.9,30,7.3,53.6v19.5l-0.2,17.9c0,10.7,1.1,24.5,3.4,41.4c2.2,16.9,3.4,30.7,3.4,41.2
		c0,5.7-1.5,10.3-4.4,13.8C1734,442.3,1730.2,444.1,1725.8,444.1z"/>
	<path class="st0" d="M1917,260c-1.2,18.9-1.9,37.8-1.9,56.7c0,42.8,1.6,75.2,4.8,97.1c0.2,1.8,0.3,3.3,0.3,4.4
		c0,5.1-1.5,9.4-4.4,12.7c-2.9,3.3-6.3,5-10.1,5c-6.4,0-11.2-5.8-14.2-17.4c-7.5,6.8-15.3,12-23.3,15.4c-8.1,3.5-16.5,5.2-25.2,5.2
		c-21.5,0-39.4-8.9-53.5-26.6c-14.6-18.1-21.8-41.4-21.8-69.9c0-34.3,7.4-61.9,22.1-82.6c14.7-20.7,33.8-31.1,57.3-31.1
		c12.1,0,21.4,2.3,27.9,6.9l14.7,13.3c1.5-54.2,3.2-90.6,5.1-109.4c1.3-11.4,6.1-17.2,14.2-17.2c9.5,0,14.2,6.2,14.2,18.7
		C1923.2,159.4,1921.1,198.9,1917,260z M1847.7,265c-17.5,0-30.6,6.4-39.3,19.2c-8.7,12.8-13.1,32.1-13.1,57.8
		c0,16.6,4.8,30.9,14.3,42.8c9.5,12,20.7,17.9,33.5,17.9c8.7,0,16.1-2,22.1-6c3.5-2.3,9.3-7.7,17.3-16c1.6-1.7,3.1-3.7,4.5-6
		l-0.5-33.4l0.2-22.4l0.3-22.8c-4-10.4-9.2-18.2-15.8-23.4C1864.7,267.6,1856.9,265,1847.7,265z"/>
	<path class="st0" d="M2237.4,313.6c-6.4,39.5-20,71-40.6,94.6c-20.6,23.6-45,35.4-73.1,35.4c-25.6,0-44.8-8.8-57.5-26.5
		s-19.2-44.2-19.2-79.6c0-33.3,6.4-67.6,19.1-102.9c12.7-35.3,29.1-63.8,49-85.6c13.3-14.5,27.4-21.8,42.3-21.8
		c9.5,0,21.9,3.9,37.4,11.6c18.9,9.3,28.4,19.5,28.4,30.7c0,5.3-1.6,10-4.7,14.1c-3.1,4.1-6.9,6.2-11.2,6.2c-2.3,0-5.5-1.6-9.7-4.8
		c-15.9-12-29.3-17.9-40.2-17.9c-7.8,0-16,5-24.5,15.1c-4.3,5-10.4,14.2-18.4,27.4c-24,39.4-36,82.1-36,128.1c0,24.2,3,41.1,9,50.7
		c6.5,10.5,18.6,15.8,36.2,15.8c18.6,0,34.8-7.3,48.5-21.8c14.4-15.4,24.5-37.5,30.3-66.2c-28.8,1.8-53.5,8.7-74.1,20.6
		c-2.4,1.4-4.7,2.1-7,2.1c-4.6,0-8.4-2.2-11.4-6.6c-2.8-4-4.2-8.6-4.2-13.9c0-7.1,2.8-12.7,8.3-17c22.5-17,61.2-25.5,116.2-25.5
		c4.5,0,8.2,1.9,11.2,5.6c3,3.7,4.5,8.4,4.5,14.1C2246,304.1,2243.2,310,2237.4,313.6z"/>
	<path class="st0" d="M2394.8,287.8c-0.7,16.1-5.9,24.1-15.6,24.1c-8.9,0-13.4-6.4-13.4-19.1c0-2.4-0.2-6.9-0.5-13.5l-0.5-16.2
		c-16.4,2.4-29.6,8.2-39.5,17.2c-9.3,8.4-16.9,21-23.1,37.8l0.3,105.7c0,13-5.1,19.5-15.4,19.5c-9.1,0-13.7-6.5-13.7-19.5V288.4
		c0-4.2,0.1-10.6,0.4-19.1c0.3-8.5,0.4-14.9,0.4-19.1c0-13,4.6-19.5,13.7-19.5c10.2,0,15.3,10.7,15.4,32
		c20-23.8,42.1-35.7,66.4-35.7c8.4,0,14.7,3.9,18.9,11.8c4.2,7.8,6.2,19.7,6.2,35.5C2394.9,281,2394.9,285.5,2394.8,287.8z"/>
	<path class="st0" d="M2485.4,441.8c-17.5,0-32.5-8-45.1-23.9c-14-17.8-21.4-41.6-22.1-71.6c-0.6-29.1,5.3-54.7,17.8-76.8
		c14.6-26.1,34.8-39.2,60.8-39.2c20.8,0,36.5,11.8,47.3,35.3c8.5,19,12.6,41.9,12.3,68.7c-0.3,28.6-6.3,52.9-18.1,73.1
		C2525,430.3,2507.3,441.8,2485.4,441.8z M2494.8,269.4c-15.3-0.1-27.2,8.9-35.7,27c-6.8,14.5-10.1,31.1-10.1,49.8
		c0,18.7,4.1,33.2,12.3,43.6c6.9,8.6,14.9,12.9,24.2,12.9c10.8,0,20.1-4.9,27.9-14.7c8.8-10.8,13.5-25.4,14-43.8
		C2528.8,294.5,2517.9,269.6,2494.8,269.4z"/>
	<path class="st0" d="M2653.3,441.8c-17.5,0-32.5-8-45.1-23.9c-14-17.8-21.4-41.6-22.1-71.6c-0.6-29.1,5.3-54.7,17.8-76.8
		c14.6-26.1,34.8-39.2,60.8-39.2c20.8,0,36.5,11.8,47.3,35.3c8.5,19,12.6,41.9,12.3,68.7c-0.3,28.6-6.3,52.9-18.1,73.1
		C2692.9,430.3,2675.3,441.8,2653.3,441.8z M2662.7,269.4c-15.3-0.1-27.2,8.9-35.7,27c-6.8,14.5-10.1,31.1-10.1,49.8
		c0,18.7,4.1,33.2,12.3,43.6c6.9,8.6,14.9,12.9,24.2,12.9c10.8,0,20.1-4.9,27.9-14.7c8.8-10.8,13.5-25.4,14-43.8
		C2696.8,294.5,2685.9,269.6,2662.7,269.4z"/>
	<path class="st0" d="M2834.7,420.3c-0.3,11.8-5,17.8-14.2,17.8c-7.6,0-13.1-5.5-16.5-16.6l-23.9-78.3l-27.8-88.6
		c-1-3.3-1.6-6.3-1.6-8.9c0-5.3,1.6-9.8,4.8-13.5c3.2-3.7,7-5.6,11.2-5.6c6.2,0,10.7,3.9,13.4,11.8l39.6,134.9
		c7.8-20.6,17.6-50.4,29.5-89.5c2.8-10.3,7.2-24.8,13.3-43.6c3.2-8.2,7.8-12.3,13.7-12.3c4.3,0,8,1.9,11.2,5.6
		c3.2,3.7,4.8,8.2,4.8,13.3c0,4.9-8.6,32.4-25.7,82.6L2834.7,420.3z"/>
	<path class="st0" d="M2991,439.3c-23.5,0-42.5-7.3-57.1-21.8c-15.9-16.1-23.9-38.6-23.9-67.5c0-33.4,6.5-61.5,19.6-84.1
		c14.2-24.7,33.3-37,57.1-37c17.3,0,31.3,3.6,42.3,10.8c13.4,8.9,20.1,22.5,20.1,40.9c0,12.9-5.9,24.6-17.6,35.1
		c-5.2,4.6-16.2,11.8-33.1,21.6l-59.6,34.9c5.8,10.7,13.1,18.7,21.8,24.1c8.7,5.4,18.8,8.1,30.3,8.1c7.2,0,15.6-1.7,25.3-5
		c12.3-4.2,20.2-9.8,23.7-16.7c3.5-6.9,7.3-10.3,11.4-10.3c3.6,0,6.9,1.7,9.7,5.1c2.9,3.4,4.3,7.4,4.3,11.9
		c0,14.3-9.3,26.6-27.9,36.9C3021.5,434.9,3006,439.3,2991,439.3z M2986.8,263.5c-12.7,0-23.2,6.1-31.7,18.2
		c-8.4,12.2-14.7,30.5-18.9,54.9l47.9-28.2c18.8-11.3,32.2-21.2,40.2-29.5C3015.4,268.6,3002.9,263.5,2986.8,263.5z"/>
</g>
<rect x="2206.8" y="1141" style="fill:none;" width="0" height="4.3"/>
</svg>
