<?xml version="1.0" encoding="utf-8"?>
<!-- Generator: Adobe Illustrator 26.0.3, SVG Export Plug-In . SVG Version: 6.00 Build 0)  -->
<svg version="1.1" id="Layer_1" xmlns="http://www.w3.org/2000/svg" xmlns:xlink="http://www.w3.org/1999/xlink" x="0px" y="0px"
	 viewBox="0 0 1500 1500" style="enable-background:new 0 0 1500 1500;" xml:space="preserve">
<style type="text/css">
	.st0{fill:#0FAEF0;}
</style>
<g>
	<path class="st0" d="M687.7,687.6c10.7,14.3,20.6,28,31,41.3c1,1.3,3.7,2.3,5,2c14-6,30-5,42.9-15.3c36-29.3,88.6-29,119.2,0
		c22,20.6,29.6,46.9,23,75.9c-7,29.3-25,48.9-54.3,57.9c-21,6.3-41.9,10.3-63.6,3.3c-3-1-6.7,0.3-10,1c-26,5.3-51.9,11-77.9,16.6
		c-21,4.3-39.3-0.7-53.9-16c-5.3-5.3-9.3-12.3-14-18.3c-1.3,1-3,2-4.3,3c-4,10.3-8,20.6-12.3,31c-11.3,29.6-22.6,59.3-34.6,88.6
		c-3.3,8-1.7,12,4.7,17.3c36,29.3,70.6,60.3,107.5,87.9c38.9,29.3,58.9,67.2,65.6,114.9c10,71.6,23.6,142.5,34.3,213.7
		c4.3,28.6-11.7,54.9-36.3,64.9c-26.6,10.7-56.6,4-72.6-19.3c-9-13-13.6-29-18.6-44.3c-19.3-61.6-37.6-123.2-56.6-184.8
		c-1.3-4-4-8.7-7.7-11c-55.6-36.3-111.5-72.2-167.1-108.5c-1-0.7-2-0.7-4.3-1.7c-3.3,7.7-6.7,15.3-10.3,22.6
		c-16.6,36-32,72.9-50.6,107.9c-8.3,16-21,31-35.3,41.9c-78.2,60.9-157.5,120.8-237,180.1c-24.3,18.3-56.6,15.6-77.9-4.3
		c-22-20.3-27-49.9-12-75.9c4.7-8,11.3-14.6,18-21c64.9-61.3,130.2-122.5,194.7-184.1c7-6.7,12.3-16,15.3-25
		c20.3-62.9,39.6-125.8,58.9-189.1c2.7-8.7,2.7-18.3,4.7-27.3c3.3-15,5.3-30.6,11-44.6c31.6-78.2,63.9-156.5,96.2-234.4
		c26.6-64.3,78.6-98.9,149.1-95.5c74.2,3.7,148.1,9.3,222,14c56.9,3.7,114.2,7.3,171.1,10.3c5.3,0.3,10.7-3,16-4.3
		c11.3-3,22.6-7.7,34-9c12.3-1.3,23.6-2.7,35.6-7c44.3-15.6,89.6-8.3,113.9,29.6c17,26.6,18.6,54.9,3,82.6
		c-16,28.3-41.3,41.9-73.6,41.9c-18.6,0-36.6-2-53.9-11.3c-6-3-14.3-2-21.3-2c-14.6,0-28.3-2.3-40.6-11.3c-2.7-2-6.3-3-9.7-3
		c-86.9,5.3-173.4,10.7-260.3,16.3C692.4,686.3,691,686.6,687.7,687.6z"/>
	<path class="st0" d="M494,404.6c0.3-73.2,58.9-131.2,132.5-130.8c70.6,0.3,129.2,59.6,129.2,130.8c0,72.6-59.6,131.5-132.8,130.8
		C551.9,535.1,493.6,475.9,494,404.6z"/>
	<path class="st0" d="M1348.5,221.5c0-59.9,0-121.5,0-183.8c12,0,23,0,35,0c0,3.3,0,6.3,0,9c0.7,55.3,1.3,110.9,1.7,166.1
		c0,6.7,2.3,9.3,8.3,10.7c45.6,11.3,77.2,39.6,96.9,82.2c5.3,12,8.3,23.3,8.3,36.6c0,165.1,0.3,330.6,0.3,495.7
		c0,16-0.3,32-2.7,47.9c-8,57.3-53.9,103.9-108.2,110.9c-61.9,8-120.2-23.6-143.1-78.2c-3.3-8.3-5-17.6-5.3-26.6
		c-1-40.3-2-80.9-2-121.2c-0.3-144.8,0-290-0.3-434.8c0-14.3,3-27,10-39.6c16-28.6,37.3-51.3,67.6-64.6
		C1325.2,227.9,1336.2,225.5,1348.5,221.5z"/>
</g>
</svg>
