<?xml version="1.0" encoding="utf-8"?>
<!-- Generator: Adobe Illustrator 26.0.3, SVG Export Plug-In . SVG Version: 6.00 Build 0)  -->
<svg version="1.1" id="Layer_1" xmlns="http://www.w3.org/2000/svg" xmlns:xlink="http://www.w3.org/1999/xlink" x="0px" y="0px"
	 viewBox="0 0 1500 1500" style="enable-background:new 0 0 1500 1500;" xml:space="preserve">
<style type="text/css">
	.st0{fill:#FFFFFF;}
</style>
<g>
	<path class="st0" d="M1043.4,637.6c18,38.6,34.8,75.3,51.7,112c158.1-57.7,334.1,27.7,388,187.7c49.4,145.7-19.9,305.6-161.1,370.4
		c-138.6,63.7-305.3,11.2-383.5-120.2c-86.5-145.3-35.6-334.9,109.4-416.1c-9-19.9-18.4-39.7-27.3-59.2
		c-10.5-22.5-21-44.9-31.1-67.4c-2.2-4.9-4.9-7.5-10.9-7.1c-13.1,0.4-26.2,0-39.3,0.4c-17.2,0.4-29.2-7.5-36.3-23.2
		c-19.9-41.9-40.1-83.5-59.9-125.5c-8.6-18-17.2-20.6-34.5-10.9c-58.4,33.7-116.9,67-175.3,100.4c-2.2,1.1-4.5,2.6-6.7,3.7
		c-15,9-14.6,25.5,0.4,33.7c27.7,15,55.4,30,83.2,44.9c14.2,7.9,28.5,15.4,42.7,23.2c25.8,14.2,39.3,36.3,39.3,65.9
		c0,92.1,0,184.3,0,276.4c0,32.2-24,56.2-55.1,56.2s-54.7-24.3-54.7-56.6c0-82,0-164.4,0-246.5c0-6.4-1.9-9.4-7.5-12.4
		c-81.3-43.8-162.6-87.6-243.8-131.5c-31.8-17.2-50.2-43.4-50.9-79.8c-1.1-37.1,16.1-64.8,47.9-83.5
		C536.3,409.3,644.6,346,752.8,283.1c48.7-28.5,106.7-10.9,131.5,40.1c30.3,62.9,60.7,125.8,90.6,189.1
		c5.6,11.6,12.7,16.5,25.8,16.1c51.7-0.4,103.4-0.4,155.4,0c24.7,0,45.3,16.1,52.1,39.3c6.7,22.8-1.9,47.2-21.7,61.1
		c-9.7,6.7-20.2,9.4-32.2,9.4c-33.7,0-67,0-100.8,0C1051.6,637.6,1048.2,637.6,1043.4,637.6z M1070.3,819.3
		c-101.9,56.9-158.1,196.3-98.1,321.7c61.1,128.1,215,179,340.5,114.2c125.1-64.8,172.3-220.6,103.4-343.1
		c-71.9-128.1-215.7-147.6-298.5-113.9c1.5,3.4,3,6.7,4.5,10.1c32.2,70,64.4,139.7,96.6,209.7c2.6,5.6,4.1,12.7,3.7,18.7
		c-1.1,11.6-10.5,19.9-22.5,21.3c-10.9,1.5-21-4.5-26.2-15.4c-15.4-33.3-30.7-66.7-46.1-99.6
		C1108.2,901.7,1089.4,860.8,1070.3,819.3z"/>
	<path class="st0" d="M302.1,730.9c165.6-0.4,300,134.5,301.5,300c1.5,168.9-133.3,304.9-299.3,305.6
		C136.2,1337.3,1.3,1202.8,1,1035C0.6,866.1,133.9,731.2,302.1,730.9z M302.1,782.9c-138.2,0-249.8,111.6-250.2,250.2
		c0,140.5,110.9,252.4,250.6,252.4c137.5,0,249.1-112.4,249.5-251C551.9,895.3,440.3,782.9,302.1,782.9z"/>
	<path class="st0" d="M1192.1,223c0,76.8-61.4,137.8-138.6,137.8c-75.7-0.4-136.3-62.6-136-139.3c0.4-76.4,61.8-137.5,138.2-137.1
		C1131.7,84.4,1192.4,145.8,1192.1,223z"/>
</g>
</svg>
