<?xml version="1.0" encoding="utf-8"?>
<!-- Generator: Adobe Illustrator 26.0.3, SVG Export Plug-In . SVG Version: 6.00 Build 0)  -->
<svg version="1.1" id="Layer_1" xmlns="http://www.w3.org/2000/svg" xmlns:xlink="http://www.w3.org/1999/xlink" x="0px" y="0px"
	 viewBox="0 0 1500 1500" style="enable-background:new 0 0 1500 1500;" xml:space="preserve">
<style type="text/css">
	.st0{fill:#0FAEF0;}
</style>
<g>
	<path class="st0" d="M898.1,448.4c0-23.6,0-49.5,0-74.9c55.3-4.5,110.6,35.2,126.7,91.9c4.5,16.5,12,18.7,26.3,18.7
		c136.9-0.4,273.4-0.4,410.4,0c7.6,0,16.5-2.2,21.9,1.3c7.1,4.5,16.1,13.4,15.6,20.1c-0.4,6.2-10.7,13.4-17.8,17.8
		c-4.5,2.7-11.6,0.4-17.4,0.4c-137.4,0-274.8,0-412.6-0.4c-14.3,0-21.4,2.2-25.9,18.7c-15.2,56.2-67.4,94.1-126.2,93.2
		c0-25.4,0-50.9,0-74c-102.6,0-203,0-305.1,0c-5.8,44.6-11.6,85.6-17,126.7c-7.6,61.1-14.7,122.2-23.2,183.3
		c-2.2,15.6,2.2,24.1,14.7,33c41,28.1,80.7,58,121.3,86.5c22.3,15.6,34.3,35.7,37,62.9c4,42.8,29,244.4,29,274.8
		c0,35.7-30.3,64.2-65.6,66.5c-38.4,2.2-69.6-20.1-74.9-58.4c-9.8-73.6-17.8-147.2-25.4-221.2c-1.8-16.5-8.5-26.8-21.4-35.7
		c-65.6-46.4-129.8-94.1-195.8-139.6c-50-33.9-68.7-77.6-58.9-137.8c12-74,19.6-148.5,29-223c0.4-4.5,0-8.5,0-16.1
		c-32.1,0-63.8-0.9-95.5,0c-37,0.9-63.3-13.8-82.5-45.9c-48.6-79.8-99-158.8-148.5-237.7C-5.1,245.4,1.1,210.2,31,191.9
		c29-17.8,62.4-8,83.9,25c45.5,69.6,91,139.2,135.2,209.6c8.9,14.3,18.7,19.6,35.7,19.6c181.5-0.4,362.6-0.4,544.2-0.4
		C851.8,444.8,873.6,447.1,898.1,448.4z"/>
	<path class="st0" d="M299.1,938.6c39.7,29,76.7,57.1,114.6,84.3c10.7,7.6,13.8,14.3,11.2,27.2c-6.2,29-9.4,58.4-15.2,87.4v0.4
		c-5.4,24.5-22.3,45.1-44.6,56.2c-62,30.8-202.1,110.6-260.1,140.1c-31.2,15.6-65.1,8.5-86.5-17c-21.4-25-24.1-62.9-3.1-88.3
		c9.4-11.6,23.2-20.5,36.6-27.7c68.7-36.6,138.3-71.8,207-108.4c8-4.5,16.1-15.2,17.8-24.5C284.8,1025.6,291.5,981.9,299.1,938.6z"
		/>
	<circle class="st0" cx="557.4" cy="247.7" r="142.7"/>
</g>
</svg>
