<?xml version="1.0" encoding="utf-8"?>
<!-- Generator: Adobe Illustrator 26.0.3, SVG Export Plug-In . SVG Version: 6.00 Build 0)  -->
<svg version="1.1" id="Layer_1" xmlns="http://www.w3.org/2000/svg" xmlns:xlink="http://www.w3.org/1999/xlink" x="0px" y="0px"
	 viewBox="0 0 1500 1500" style="enable-background:new 0 0 1500 1500;" xml:space="preserve">
<style type="text/css">
	.st0{fill:#FFFFFF;}
</style>
<g>
	<g>
		<path class="st0" d="M1047.3,428.7C864.5,308,689.9,192.7,513.9,76c-12.3,17.7-23.2,33.4-34.8,49.1
			c-14.3,19.1-32.1,26.6-53.2,12.3c-20.5-13.6-21.1-34.1-8.2-53.9C435.4,56.3,455.2,29.7,475,1c8.9,4.8,17.1,8.9,23.9,13.6
			c206,135.1,411.3,270.8,617.3,405.9c25.2,16.4,47.1,35.5,40.2,68.2c-6.8,34.1-34.1,43-65.5,48.4c-87.3,14.3-173.9,31.4-264.7,47.7
			c18.4,75,36.8,148.7,55.3,221.7c16.4,66.2,39.6,131,48.4,197.8c6.8,51.8,0,105.7-5.5,158.3c-8.9,83.2-21.8,166.4-32.7,249.7
			c-6.1,45.7-23.2,68.2-58,73c-45,6.1-81.9-28-75.7-73c13.6-105.7,30-211.5,41.6-317.2c4.1-34.8-2-70.9-3.4-106.4
			c-3.4-0.7-7.5-0.7-10.9-1.4c-53.2,79.8-106.4,159.6-159.6,239.4c-51.8,77.8-103.7,154.8-154.2,232.6c-15,23.2-34.1,43.7-62.1,38.9
			c-19.8-3.4-43-15.7-55.9-31.4c-17.7-21.8-13-49.1,2.7-73c49.8-74.4,99.6-149.4,149.4-223.7c45.7-68.2,90-136.4,136.4-203.3
			c13-18.4,15.7-34.8,10.2-56.6c-28.7-107.1-55.9-214.9-83.9-322.7c-13-49.1,2.7-73.7,51.8-82.5
			C759.5,480.5,898.6,455.3,1047.3,428.7z"/>
		<path class="st0" d="M589.6,252c62.1,0,111.2,47.7,111.2,108.5c0,61.4-48.4,109.8-109.8,110.5s-110.5-48.4-111.2-109.1
			C479.1,299.8,526.9,252.7,589.6,252z"/>
	</g>
	
		<ellipse transform="matrix(0.4363 -0.8998 0.8998 0.4363 531.6795 1011.7202)" class="st0" cx="1073.3" cy="81.5" rx="51.2" ry="51.2"/>
</g>
</svg>
