<?xml version="1.0" encoding="utf-8"?>
<!-- Generator: Adobe Illustrator 26.0.3, SVG Export Plug-In . SVG Version: 6.00 Build 0)  -->
<svg version="1.1" id="Layer_1" xmlns="http://www.w3.org/2000/svg" xmlns:xlink="http://www.w3.org/1999/xlink" x="0px" y="0px"
	 viewBox="0 0 560 560" style="enable-background:new 0 0 560 560;" xml:space="preserve">
<style type="text/css">
	.st0{fill:#170856;}
	.st1{fill:url(#SVGID_1_);}
</style>
<g>
	<path class="st0" d="M194.7,209.8c0-5.1,3.9-9,9.2-11.4c19.8-9,39.8-17.9,59.6-26.9c7.2-3.3,12.7,0,18.2,4.1
		c26.7,19.3,53.4,38.3,80,57.8c5.3,3.9,8.1,4.1,11.9-1.8c6.4-9.9,13.4-19.4,20.6-28.9c6.2-8.2,14-9.8,21-4.8
		c6.8,5,7.3,12.9,1.2,21.6c-10.6,14.8-21.1,29.4-31.8,44c-6.8,9.2-13.2,10.4-22.7,3.9c-7.9-5.4-15.7-11.1-23.3-17
		c-4.2-3.1-6.8-4.8-11,2.3c-7.8,13.3-16.7,26.1-26.8,37.8c-6.2,7.2-6.6,9.4-0.1,11.7c10.4,3.6,20.8,7.4,31.1,11.6
		c11.4,4.6,14.3,11.1,9.9,22.8c-8.8,23.6-17.7,47-26.7,70.4c-4.1,10.7-11.1,14.9-19,12c-8.8-3.3-11.2-10.8-7-22.1
		c6.8-18,13.3-36,20.7-53.8c2.2-5.6,1.1-7.8-4.2-9.7c-13.9-5.1-27.8-10.1-41.2-16c-16.4-7.1-19.6-19-9.7-33.9
		c12.4-18.8,24.8-37.7,39.6-54.8c4.8-5.6,2.7-7.3-1.8-11.8c-15.7-16-31.7-17.7-50.3-5.6c-8.2,5.3-17.9,8.9-27.1,12.6
		C204,228.2,194.2,221.8,194.7,209.8z"/>
	<path class="st0" d="M241,304.8c4.4,8.1,8.2,14.9,15.8,18.2c4,1.8,3.3,3.9,1.4,6.9c-7.7,12.6-15.2,25.2-22.9,37.8
		c-2.7,4.3-7,6.3-11.7,7.9c-20.7,6.8-41.2,13.6-61.9,20.3c-11,3.6-18.3,1.2-21.3-6.9c-3.2-8.6,1.3-15.7,12.6-19.6
		c15.7-5.3,31.2-11.2,47.2-15.3c10.3-2.7,16.4-8.1,21.2-17C227.3,326.4,234,316.2,241,304.8z"/>
	<path class="st0" d="M378,171.2c0.1,17.2-13.3,31.1-30.4,31.4c-17.4,0.2-31.8-14.1-31.7-31.6c0.1-16.8,14.3-30.8,31.2-30.9
		C364.2,140.2,377.9,153.9,378,171.2z"/>
</g>
<linearGradient id="SVGID_1_" gradientUnits="userSpaceOnUse" x1="30" y1="280" x2="530" y2="280">
	<stop  offset="0" style="stop-color:#CCE0F4"/>
	<stop  offset="6.405089e-02" style="stop-color:#C3DCF2"/>
	<stop  offset="0.1706" style="stop-color:#A9D2EE"/>
	<stop  offset="0.3066" style="stop-color:#80C2E7"/>
	<stop  offset="0.4649" style="stop-color:#47ACDE"/>
	<stop  offset="0.5674" style="stop-color:#1E9CD7"/>
	<stop  offset="0.8652" style="stop-color:#0075BE"/>
	<stop  offset="0.9944" style="stop-color:#005B97"/>
</linearGradient>
<path class="st1" d="M85.6,280c0,107.4,87.1,194.4,194.4,194.4S474.4,387.4,474.4,280S387.4,85.6,280,85.6V30
	c138.1,0,250,111.9,250,250S418.1,530,280,530S30,418.1,30,280H85.6z"/>
</svg>
