<?xml version="1.0" encoding="utf-8"?>
<!-- Generator: Adobe Illustrator 26.0.3, SVG Export Plug-In . SVG Version: 6.00 Build 0)  -->
<svg version="1.1" id="Layer_1" xmlns="http://www.w3.org/2000/svg" xmlns:xlink="http://www.w3.org/1999/xlink" x="0px" y="0px"
	 viewBox="0 0 1500 1500" style="enable-background:new 0 0 1500 1500;" xml:space="preserve">
<style type="text/css">
	.st0{fill:#FFFFFF;}
</style>
<g>
	<path class="st0" d="M295.3,375.7c0-27.2,20.7-48,49.1-61c105.4-48,211.9-95.3,317.3-143.3c38.5-17.8,67.5,0,97.1,21.9
		c142.1,103,284.8,204.2,426.3,307.9c28.4,20.7,43.2,21.9,63.3-9.5c34.3-52.7,71.6-103.6,109.5-153.9
		c33.2-43.8,74.6-52.1,111.9-25.5c36.1,26.6,39.1,68.7,6.5,114.9c-56.2,78.7-112.5,156.9-169.3,234.4
		c-36.1,49.1-70.5,55.7-120.8,20.7c-42-29-83.5-59.2-124.3-90.6c-22.5-16.6-36.1-25.5-58.6,12.4c-41.4,71-88.8,139.1-142.7,201.3
		c-33.2,38.5-34.9,50.3-0.6,62.2c55.7,18.9,110.7,39.7,165.8,61.6c61,24.3,76.4,59.2,52.7,121.4c-46.8,125.5-94.1,250.4-142.1,375.3
		c-21.9,56.8-59.2,79.3-101.2,63.9c-46.8-17.8-59.8-57.4-37.3-117.8c36.1-95.9,71-191.8,110.1-286.5c11.8-29.6,5.9-41.4-22.5-51.5
		c-74-27.2-148-53.9-219.6-85.3c-87.6-37.9-104.2-101.2-51.5-180.6c66.3-100.1,132-200.7,210.8-291.9c25.5-29.6,14.2-39.1-9.5-62.8
		c-83.5-85-168.7-93.9-268.2-29.4c-43.8,28.4-95.3,47.4-144.5,66.9C345,474,292.9,439.7,295.3,375.7z"/>
	<path class="st0" d="M542.2,881.9c23.7,43.2,43.8,79.3,84.1,97.1c21.3,9.5,17.8,20.7,7.7,36.7c-40.8,66.9-81.1,134.4-122,201.3
		c-14.2,23.1-37.3,33.7-62.2,42c-110.1,36.1-219.6,72.2-329.8,108.3c-58.6,18.9-97.7,6.5-113.7-36.7c-17.2-45.6,7.1-83.5,66.9-104.2
		c83.5-28.4,166.4-59.8,251.6-81.7c55.1-14.2,87.6-43.2,113.1-90.6C469.4,997.4,504.9,942.9,542.2,881.9z"/>
	<path class="st0" d="M1272.1,170.3c0.6,91.8-71,165.8-162.2,167.5c-92.9,1.2-169.3-75.2-168.7-168.1c0.6-89.4,76.4-164,166.4-164.6
		C1198.7,5.1,1271.5,78,1272.1,170.3z"/>
</g>
</svg>
