<?xml version="1.0" encoding="utf-8"?>
<!-- Generator: Adobe Illustrator 26.0.3, SVG Export Plug-In . SVG Version: 6.00 Build 0)  -->
<svg version="1.1" id="Layer_1" xmlns="http://www.w3.org/2000/svg" xmlns:xlink="http://www.w3.org/1999/xlink" x="0px" y="0px"
	 viewBox="0 0 1500 1500" style="enable-background:new 0 0 1500 1500;" xml:space="preserve">
<style type="text/css">
	.st0{fill:#0FAEF0;}
</style>
<g>
	<path class="st0" d="M473.8,1499c-35.3-12.1-62-32.7-68.4-71.9c-7.3-43,13.3-76.6,61.1-99.4c-18.9-1.3-35.7-0.9-52.1-3.4
		c-59.8-8.2-109.3-40.9-161-68.4c-24.1-12.9-31-47.4-19.4-70.2c14.2-28,43.9-40.5,74.5-28.4c26.7,10.8,50.8,26.3,77.5,37
		c20.2,7.7,42.2,15.5,63.3,15.5c196.3,1.3,393,0.4,589.3,0.9c29.7,0,56.4-5.2,82.2-19.4c20.7-11.6,41.8-22,63.3-32.3
		c28.4-13.3,62-2.6,76.6,23.2s6.9,62.4-20.7,77.1c-64.6,33.1-126.6,75.8-205.8,69.3c3.9,2.2,7.7,3.9,11.6,6
		c33.6,17.6,50.8,45.2,48.6,83.5c-1.7,35.3-24.5,64.1-59.8,76.2c-3.4,1.3-6.5,3-9.5,4.3c-11.6,0-22.8,0-34.4,0
		c-5.2-2.2-9.9-4.7-15.1-6.9c-46.1-19.4-68-75.3-42.6-117.9c11.2-18.9,31.4-32.7,44.8-46.5c-150.2,0-306.1,0-466.6,0
		c9.5,4.3,15.1,6.9,20.2,9.5c39.6,21.5,55.5,70.6,37,111.1c-12.1,26.7-34.9,40.5-60.3,50.8C497,1499,485.4,1499,473.8,1499z"/>
	<path class="st0" d="M1262,1c43.9,12.5,81.8,33.6,103.7,76.2c27.5,53.4,24.5,105.5-11.2,153.2c-36.6,49.1-87.4,68.9-147.6,54.2
		c-59-14.2-95.6-52.9-108-112.4c-15.9-74.5,31.4-147.6,106.3-167c4.7-1.3,9.5-3,13.8-4.3C1233.1,1,1247.8,1,1262,1z"/>
	<path class="st0" d="M811.3,232.2c-52.5,1.7-105.5-7.7-156.3,21.5c-44.3,25.8-93,44.8-139.9,66.3c-40.5,18.5-83.9-3.9-89.5-46.1
		c-3-22.4,4.7-40.5,25-50.4c73.6-35.3,147.6-69.3,221.7-103.7c6-3,13.8-3.4,21.1-3.4c95.6,0,190.7-0.9,286.3,0.4
		c70.2,0.9,119.7,57.3,114.5,127.4c-2.2,29.7-17.2,52.1-37.9,72.3c-74.5,74-148.1,148.1-222.5,222.1c-5.2,5.2-11.6,8.6-19.4,14.2
		c39.6,30.1,74.9,57.3,109.8,83.9c5.6,4.3,11.6,8.6,17.2,12.9c23.7,18.1,34.9,39.6,33.1,71.5c-3,64.6-0.9,129.1-0.9,193.7
		c0,44.3-2.2,89.1,0.4,133.4c3.4,59.4-42.2,99-87.4,99c-49.9-0.4-86.1-41.3-86.1-98.1c0-91.3-0.4-182.1,0.4-273.3
		c0-15.5-5.2-24.5-17.2-33.6c-53.4-38.3-104.2-81.4-160.1-115.8c-59.8-37-71.5-135.2-14.6-188.5c64.1-60.3,125.3-124.4,187.7-186.4
		c5.2-5.2,10.8-9.5,16.4-13.8C813,236,812.1,234.3,811.3,232.2z"/>
	<path class="st0" d="M542.7,658.3c46.9,37.4,92.1,73.2,136,108C615.4,830.9,553.4,894.6,490.6,957c-19.8,19.4-46.9,23.7-74,24.1
		c-69.3,0.4-139,0.9-208.3,0c-46.1-0.4-82.6-30.1-90.8-70.2c-7.3-37,12.5-77.5,49.1-93.4c14.6-6.5,31.9-9,47.8-9
		c55.1-1.3,110.2,0.4,165.3-0.9c10.8-0.4,23.7-5.6,31.4-12.9C454.9,750,497.5,704.8,542.7,658.3z"/>
	<path class="st0" d="M922.3,518.8c37.5-37,70.6-71,104.6-103.7c6-5.6,15.9-9.9,24.1-9.9c34.4-0.9,68.9-0.9,103.3,0
		c34,0.9,55.5,22.4,56.4,54.7c0.9,34-19.4,58.5-54.2,59C1080.3,519.7,1003.7,518.8,922.3,518.8z"/>
</g>
</svg>
