<?xml version="1.0" encoding="utf-8"?>
<!-- Generator: Adobe Illustrator 26.0.3, SVG Export Plug-In . SVG Version: 6.00 Build 0)  -->
<svg version="1.1" id="Layer_1" xmlns="http://www.w3.org/2000/svg" xmlns:xlink="http://www.w3.org/1999/xlink" x="0px" y="0px"
	 viewBox="0 0 1500 1500" style="enable-background:new 0 0 1500 1500;" xml:space="preserve">
<style type="text/css">
	.st0{fill:#0FAEF0;}
</style>
<g>
	<path class="st0" d="M1,1145.7c33.5-7.4,68.3-11.4,100.4-22.8c59.6-22.1,117.8-24.8,175.4,0c68.3,29.5,135.2,30.1,203.5,0
		c56.2-25.4,115.1-24.1,172,0c69.6,29.5,137.2,30.1,206.8-1.3c54.9-24.8,113.1-23.4,168.7,0.7c68.3,29.5,134.5,30.8,203.5,0
		c56.2-25.4,114.5-22.8,172,0c30.1,11.4,61.6,18.7,95.7,29.5c0,38.8,0,82.3,0,133.9c-28.1-6.7-56.2-9.4-80.3-20.1
		c-68.3-29.5-134.5-30.1-203.5,0c-57.6,25.4-117.1,24.1-175.4-1.3c-66.3-28.8-130.5-28.8-196.8,0.7c-58.9,26.1-119.8,25.4-178.7,0
		c-66.3-28.8-130.5-28.8-196.8,0c-60.2,26.1-121.2,25.4-181.4-1.3c-62.2-27.4-124.5-26.1-188.1-2c-30.1,11.4-64.3,12.7-96.4,18.7
		C1,1234.8,1,1189.9,1,1145.7z"/>
	<path class="st0" d="M1195.8,1014.5c-54.9,17.4-105.1,15.4-153.3-6c-68.3-30.1-134.5-30.8-203.5,0c-56.2,25.4-115.8,25.4-172,0.7
		c-68.3-30.1-134.5-30.1-203.5-0.7c-71,30.1-133.9,24.1-211.5-18.1c172.7-95.7,343.4-190.1,517.4-285.8
		C738,648.4,707.8,593.5,677,538c-16.1-29.5-33.5-57.6-48.2-87.7c-32.8-67.6-1.3-127.8,73-141.9c165.3-30.1,330-60.9,495.3-91
		c41.5-7.4,81-2.7,109.8,32.1c24.8,29.5,32.1,63.6,18.1,99.7c-16.1,41.5-49.5,60.2-91.7,67.6c-110.4,20.1-220.9,40.8-335.3,61.6
		C998.3,657.8,1096.7,835.2,1195.8,1014.5z"/>
	<path class="st0" d="M1284.1,891.4c-99.1,0-176.7-78.3-177.4-178.7c0-98.4,79-178,178-178c101.1,0,180.7,79,179.4,179.4
		C1462.9,812.4,1382.5,891.4,1284.1,891.4z"/>
</g>
</svg>
