<?xml version="1.0" encoding="utf-8"?>
<!-- Generator: Adobe Illustrator 26.0.3, SVG Export Plug-In . SVG Version: 6.00 Build 0)  -->
<svg version="1.1" id="Layer_1" xmlns="http://www.w3.org/2000/svg" xmlns:xlink="http://www.w3.org/1999/xlink" x="0px" y="0px"
	 viewBox="0 0 1500 1500" style="enable-background:new 0 0 1500 1500;" xml:space="preserve">
<style type="text/css">
	.st0{fill:#0FAEF0;}
</style>
<g>
	<path class="st0" d="M668.9,1100.2c0-108.5,0-216.7,0-325.3c0-11.1-3-20.6-9.8-29.3c-71.5-95.7-142.9-191.5-214.7-286.8
		c-6.1-8.1-13.8-15.2-21.9-20.9C317.4,363,211.9,288.5,106.7,213.7c-35.1-24.9-41.1-71.8-14.2-104.2c23.9-28.7,65.1-33.4,96.7-10.8
		c51.6,36.4,103.1,73.1,154.7,109.9c71.1,50.6,142.9,100.8,213.7,152c16.9,12.1,32.4,27,45.8,42.8c35.7,41.8,70.1,84.9,105.2,127.4
		c9.8,12.1,14.8,12.1,24.9,0.7c52.6-60,105.5-119.7,158.1-179.7c2.7-3,3.4-7.8,5.1-11.8c-4-1.7-8.4-4.7-12.5-4.7
		c-30.7-0.3-61.3,0-92-0.3c-5.1,0-10.8-1.3-15.2-3.7c-70.4-39.4-140.9-79.2-211.3-119c-25.3-14.2-34-48.2-19.9-74.5
		c14.8-27.3,48.9-37.1,76.5-21.9c38.1,21.2,76.2,42.8,114.3,64.4c23.6,13.1,46.9,26.6,70.4,39.8c4.4,2.4,9.4,3.7,14.5,3.7
		c83.3,0.3,166.2,0.3,249.4,0c28.7,0,50.6,11.5,67.1,35.1c35.7,51.9,71.1,104.2,108.2,155.1c23.3,31.7,31,65.7,26.6,104.2
		c-4.4,40.1-6.7,80.2-9.8,120.3c-0.3,4.7-1.3,10.1,5.1,12.1c6.7,2,8.8-3.7,10.8-8.1c13.1-26.6,26.3-53.6,39.8-79.9
		c11.1-21.6,32-32.4,56.3-30c21.6,2,40.8,18.2,46.9,40.1c4.4,15.8,2.7,31-6.4,44.8c-53.6,82.9-107.2,165.8-161.1,248.4
		c-13.1,19.9-37.1,28.7-59.7,23.3c-23.6-6.1-40.1-24.9-42.5-49.5c-9.8-102.8-19.6-205.6-29.3-308.4c-0.3-3.7-2.7-9.1-5.4-10.1
		c-2.7-1-7.8,2-10.4,4.7C1011.4,634,916,742.6,820.6,850.8c-7.8,8.8-10.4,19.2-10.4,30.7c0,113.3,0,226.5,0,339.8
		c0,69.1,0,137.9,0,207c0,35.4-26,65.4-60,70.1c-36.7,5.1-69.8-16.5-78.9-52.2c-2-7.4-2.4-15.2-2.4-22.6
		C668.9,1315.2,668.9,1207.7,668.9,1100.2z"/>
	<path class="st0" d="M1129.4,135.2C1129,61.7,1189,1.3,1262.8,1c73.5,0,133.1,59.3,133.5,132.8c0.3,74.2-58.7,133.8-132.8,134.2
		C1189.7,268.6,1129.7,209.3,1129.4,135.2z"/>
</g>
</svg>
