<?xml version="1.0" encoding="utf-8"?>
<!-- Generator: Adobe Illustrator 26.0.3, SVG Export Plug-In . SVG Version: 6.00 Build 0)  -->
<svg version="1.1" id="Layer_1" xmlns="http://www.w3.org/2000/svg" xmlns:xlink="http://www.w3.org/1999/xlink" x="0px" y="0px"
	 viewBox="0 0 1500 1500" style="enable-background:new 0 0 1500 1500;" xml:space="preserve">
<style type="text/css">
	.st0{fill:#FFFFFF;}
</style>
<g>
	<path class="st0" d="M720.1,1394.3c2-116.6-0.7-233.9,2-350.5c0.7-23.9,13.3-51.7,29.2-69.6c55-61.6,114-119.3,170.9-179.6
		c6-6,11.3-17.9,9.9-25.2c-6-30.5-12.6-61-19.9-93.4c-6.6-28.5-45.7-33.1-57.6-6c-2.7,6-5.3,11.9-8,17.9
		c-12.6,29.2-31.8,47-65.6,52.3c-64.9,10.6-129.9,25.8-194.8,37.1c-57,10.6-88.1-16.6-81.5-70.2c1.3-11.3-3.3-21.9-12.6-28.5
		c-44.4-33.1-88.8-67.6-136.5-96.1c-21.2-12.6-53.7-12.6-80.2-8.6c-72.9,11.3-110,8-135.8,0c-19.9-6.6-33.8-13.9-41.7-19.2
		C43.6,523,20.4,474,20.4,474c-4.6-9.9-33.1-66.9-11.3-123.2c9.3-23.9,24.5-40.4,26.5-43.1c15.2-15.9,29.8-23.9,37.8-27.2
		c41.7-21.2,84.8-17.2,100.7-15.2c79.5,8,156.4,76.9,169,150.4c2.7,13.9,4,28.5,6.6,42.4c7.3,43.7,24.5,80.8,65.6,105.3
		c40.4,24.5,77.5,55,117.3,80.2c11.3,7.3,28.5,10.6,41.7,8.6c44.4-6,88.8-15.9,133.2-23.2c20.5-3.3,34.5-12.6,44.4-33.1
		c33.1-69.6,68.9-137.8,102.7-207.4c45.1-93.4,135.2-137.8,237.2-74.2c62.3,39.1,128.5,72.2,191.5,110.6
		c18.6,11.3,35.1,29.8,45.7,49c35.8,62.9,68.9,127.9,102,192.8c20.5,39.8,11.9,78.2-20.5,94.7c-33.1,17.2-68.9,2.7-90.1-36.4
		c-27.2-51.7-54.3-103.4-80.8-155c-2.7-4.6-4.6-8.6-6.6-12.6c-17.2-31.1-64.3-13.3-57,21.9c9.3,41.7,19.2,83.5,26.5,124.6
		c23.2,123.2,43.7,247.1,67.6,370.4c4,21.2,13.9,44.4,27.8,61c52.3,64.9,108,127.9,161.7,192.8c13.3,15.9,23.2,33.8,34.5,51
		c6,9.3,6.6,21.2,2,31.1c-37.8,74.2-93.4,81.5-145.8,19.9c-74.2-87.5-149.1-173.6-222-262.4c-15.2-18.6-25.8-43.7-31.1-66.9
		c-9.9-46.4-18.6-92.8-26.5-141.8c-4.6-25.2-35.1-33.8-52.3-15.2c-40.4,43.7-79.5,88.8-121.9,129.9c-16.6,15.9-23.2,31.1-23.2,53.7
		c1.3,89.4-1.3,178.9,1.3,267.7c1.3,51-17.9,83.5-68.9,100c-6.6,2-13.9,2-19.9-0.7C738.6,1477.1,719.4,1444.7,720.1,1394.3z
		 M205.3,538.3c61.6,0,104-41.1,97.4-94.7C294.1,372,219.9,308.4,149,311c-55.7,2-96.7,39.1-94.7,84.8
		C56.9,470,129.1,538.3,205.3,538.3z"/>
	<path class="st0" d="M211.2,780.1c0,29.2-25.2,54.3-54.3,55c-29.8,0.7-57.6-26.5-57-56.3c0.7-28.5,26.5-54.3,55-54.3
		C185.4,723.8,211.9,749.6,211.2,780.1z"/>
	<circle class="st0" cx="946" cy="126.1" r="122.6"/>
</g>
</svg>
