<?xml version="1.0" encoding="utf-8"?>
<!-- Generator: Adobe Illustrator 26.0.3, SVG Export Plug-In . SVG Version: 6.00 Build 0)  -->
<svg version="1.1" id="Layer_1" xmlns="http://www.w3.org/2000/svg" xmlns:xlink="http://www.w3.org/1999/xlink" x="0px" y="0px"
	 viewBox="0 0 1500 1500" style="enable-background:new 0 0 1500 1500;" xml:space="preserve">
<style type="text/css">
	.st0{fill:#0FAEF0;}
</style>
<g>
	<path class="st0" d="M612.5,546.3c-32.9,9.4-51.7,25.6-60.1,59c-17.2,66.3-39.2,131.1-60.1,196.4c-10.4,31.9-36,51.2-67.4,52.2
		c-30.3,1-60.1-16.2-68.4-46c-4.7-16.7-5.7-36.6-1-53.3c21.9-78.3,46.5-156.2,71-234c11-35.5,34-62.2,66.9-79.9
		c60.1-31.3,119.1-64.8,180.2-94c26.6-12.5,58-23.5,86.7-21.9c66.3,3.1,113.3,63.7,104.5,130.6c-15.7,121.7-32.4,242.9-50.1,364.1
		c-4.2,27.2,3.1,47.5,23.5,64.8c35.5,30.8,70.5,62.2,106.6,91.9c35.5,29.8,52.2,66.9,55.4,113.3c6.3,102.4,14.1,204.7,22.5,307.1
		c4.2,53.8-27.7,96.6-77.8,101.3c-52.8,4.7-92.5-31.3-96.6-86.2c-6.8-96.1-13.6-192.7-21.9-288.8c-1-9.9-7.3-21.4-14.6-28.2
		c-49.1-43.4-96.6-88.3-148.9-127.4c-74.2-55.4-97.7-125.9-80.4-215.2C594.8,685.8,602.1,617.3,612.5,546.3z"/>
	<path class="st0" d="M721.7,1070.2c-40.2,124.3-79.4,246.5-119.6,368.8c-14.1,42.3-49.6,63.7-92.5,59.5
		c-40.7-3.7-71.6-33.4-76.8-76.3c-1.6-13.1,0-28.2,4.2-40.7c46.5-145.2,93.5-290.4,140.5-436.7
		C626.1,986.1,673.1,1027.9,721.7,1070.2z"/>
	<path class="st0" d="M811.5,1c77.8,0.5,140.5,63.7,140.5,141c-0.5,77.3-64.2,140-141.5,140c-78.3-0.5-140-62.7-140-141
		C670.5,62.6,733.2,1,811.5,1z"/>
	<path class="st0" d="M894.6,525.9c78.9,61.1,155.1,118,229.8,177.6c28.7,23,29.8,67.9,7.8,97.2c-21.9,29.2-65.3,38.7-95.6,16.7
		c-52.8-37.6-103.9-78.3-155.1-118.6c-4.2-3.7-7.8-12-7.3-17.2C880,630.9,887.3,580.8,894.6,525.9z"/>
</g>
</svg>
