<?xml version="1.0" encoding="utf-8"?>
<!-- Generator: Adobe Illustrator 26.0.3, SVG Export Plug-In . SVG Version: 6.00 Build 0)  -->
<svg version="1.1" id="Layer_1" xmlns="http://www.w3.org/2000/svg" xmlns:xlink="http://www.w3.org/1999/xlink" x="0px" y="0px"
	 viewBox="0 0 1100 1100" style="enable-background:new 0 0 1100 1100;" xml:space="preserve">
<style type="text/css">
	.st0{fill:#FFF02A;stroke:#000000;stroke-miterlimit:10;}
	.st1{display:none;}
	.st2{display:inline;fill:none;}
	.st3{display:inline;fill:none;stroke:#A28400;stroke-width:3;stroke-miterlimit:10;}
	.st4{display:inline;opacity:0.4;fill:#FF8CBA;enable-background:new    ;}
	.st5{display:inline;}
	.st6{fill:none;}
	.st7{fill:#FF0166;stroke:#000000;stroke-width:3;stroke-miterlimit:10;}
	.st8{opacity:0.4;fill:#FF8CBA;enable-background:new    ;}
	.st9{fill:none;stroke:#000017;stroke-width:3;stroke-miterlimit:10;}
	.st10{fill:#8FA2AC;}
	.st11{fill:#767E8E;}
	.st12{fill:none;stroke:#000000;stroke-width:3;stroke-miterlimit:10;}
	.st13{fill:#F38EB0;}
	.st14{fill:#B86F8F;}
	.st15{fill:#8FA3AC;}
	.st16{fill:#B1BDC6;}
	.st17{fill:#737E8A;}
	.st18{opacity:0.6;fill:#A58BA1;enable-background:new    ;}
	.st19{fill:#2F2D3D;}
	.st20{fill:#FFFEFF;}
	.st21{fill:#312C3E;}
	.st22{fill:#E71A23;}
	.st23{fill:#FFBCC4;}
	.st24{fill:#ECEAF1;stroke:#312C3E;stroke-width:2;stroke-miterlimit:10;}
	.st25{opacity:0.8;fill:#ECEEF0;enable-background:new    ;}
	.st26{opacity:0.75;fill:#737E8A;enable-background:new    ;}
	.st27{fill:#42AFAA;}
	.st28{opacity:0.4;enable-background:new    ;}
	.st29{fill:#42AFAA;stroke:#000000;stroke-width:3;stroke-miterlimit:10;}
	.st30{fill:#3C3840;stroke:#000000;stroke-width:3;stroke-miterlimit:10;}
	.st31{fill:#424146;}
	.st32{fill:#3C3840;}
	.st33{fill:none;stroke:#000000;stroke-width:2;stroke-miterlimit:10;}
	.st34{fill:#E6AE38;stroke:#000000;stroke-width:3;stroke-miterlimit:10;}
</style>
<rect x="-84.2" y="-55.5" class="st0" width="1268.5" height="1211"/>
<g id="Layer_1_00000018929072583616307760000000968443734946217143_">
	<g id="Layer_11">
	</g>
</g>
<g id="coeur" class="st1">
	<path class="st2" d="M-3191.5-2496.6c-0.6-0.1-0.5-1-2.4-4.7c-0.6-1.2-1.2-2.3-2.4-4.5c0,0-2-3.5-4.3-7.2
		c-7.5-12.2-15.8-22.3-15.8-22.3c-15.5-19-33.1-32-33.1-32c-16.9-12.4-31.8-18.5-41.7-22.5c-24.8-9.9-45.3-12.7-56.6-14.2
		c-28.6-3.7-50.5-1.6-55.7-1c-5.1,0.6-24.6,2.8-49.1,11c-27.4,9.1-46.3,20.7-51.7,24.1c-23.1,14.6-38.5,30.1-46.2,38.5
		c-5.5,6-19.7,22.2-32.8,46.7c-7.3,13.6-16,33.1-21.8,57.7c-6.9,29.8-6.3,53.2-5.8,68.3c1.3,37.1,9.3,64.7,13.8,79.8
		c10.6,35.9,24.5,61.3,34.2,78.9c11.5,20.8,21.9,35.9,31.1,49.2c19.7,28.5,36.4,48.2,40.1,52.5c17.4,20.4,31.2,33.7,51.8,53.6
		c33.6,32.4,60.9,55.1,67.6,60.6c5.4,4.4,41.1,33.8,84.4,63.4c19.9,13.6,45,29.6,47.6,31.3c0,0,14.2,8.8,24.8,15.6
		c0.7,0.5,4.6,3,8.3,5.4c0.6,0.4,1.8,1.2,3.3,2.2c1,0.6,2.2,1.5,3.9,2.6c1.8,1.2,2.8,1.8,3,2c2.6,1.8,2.7,2,3.4,2.3
		c1.2,0.4,2.7,0.3,5.3-0.9c1.9-0.8,3.2-1.6,4.6-2.5c1.5-1,1.9-1.5,3.1-2.4c2.5-1.8,4.5-2.8,5.7-3.4c2.9-1.5,9.6-5.7,22.8-14.2
		c10.2-6.6,17.9-11.6,18.9-12.2c21.4-14.1,32.1-21.1,42.9-28.6c15.3-10.6,25.9-18.7,40.1-29.5c14.7-11.2,30.6-23.2,51.1-40.4
		c6.5-5.4,23.2-19.6,44.2-39.2c13-12.1,25.6-23.8,41.4-40.5c12.2-12.9,28.7-30.3,47.5-55.5c3-4,13.7-18.4,26.2-38.3
		c11.3-17.9,19-32.2,21.9-37.6c4.9-9.1,11.2-21,18.2-37.2c4.2-9.7,9.8-22.8,15.1-40.8c5.1-17,7.6-30.7,8.6-36.9
		c1.7-10.1,4.6-27.6,4.4-50.7c-0.2-23.5-3.6-41.4-4.9-47.8c-5.2-25.9-13.5-45.4-18.3-55.6c-10.9-23.1-23-39.3-28.9-46.7
		c-14.1-17.7-27.2-28.8-30.6-31.6c-17.1-14.3-32.2-22.2-41.4-27c-23.6-12.2-43.6-17.7-51.6-19.8c-22.7-5.8-42.2-7.2-55.9-7.4
		c-23.7-0.3-42,3.1-49.8,4.7c-11.3,2.3-33.1,7-58.2,20.7c0,0-21.3,11.6-38.3,27.3c-5.9,5.4-11.8,11.8-11.8,11.8
		c-5.2,5.7-8.7,10.1-9.6,11.1c-1,1.3-3.4,4.3-6.3,8.4c-2.1,3-4,5.7-5.8,8.6C-3188.5-2503.9-3189.8-2496.4-3191.5-2496.6z"/>
	<path class="st3" d="M-3191.5-2496.6c-0.6-0.1-0.5-1-2.4-4.7c-0.6-1.2-1.2-2.3-2.4-4.5c0,0-2-3.5-4.3-7.2
		c-7.5-12.2-15.8-22.3-15.8-22.3c-15.5-19-33.1-32-33.1-32c-16.9-12.4-31.8-18.5-41.7-22.5c-24.8-9.9-45.3-12.7-56.6-14.2
		c-28.6-3.7-50.5-1.6-55.7-1c-5.1,0.6-24.6,2.8-49.1,11c-27.4,9.1-46.3,20.7-51.7,24.1c-23.1,14.6-38.5,30.1-46.2,38.5
		c-5.5,6-19.7,22.2-32.8,46.7c-7.3,13.6-16,33.1-21.8,57.7c-6.9,29.8-6.3,53.2-5.8,68.3c1.3,37.1,9.3,64.7,13.8,79.8
		c10.6,35.9,24.5,61.3,34.2,78.9c11.5,20.8,21.9,35.9,31.1,49.2c19.7,28.5,36.4,48.2,40.1,52.5c17.4,20.4,31.2,33.7,51.8,53.6
		c33.6,32.4,60.9,55.1,67.6,60.6c5.4,4.4,41.1,33.8,84.4,63.4c19.9,13.6,45,29.6,47.6,31.3c0,0,14.2,8.8,24.8,15.6
		c0.7,0.5,4.6,3,8.3,5.4c0.6,0.4,1.8,1.2,3.3,2.2c1,0.6,2.2,1.5,3.9,2.6c1.8,1.2,2.8,1.8,3,2c2.6,1.8,2.7,2,3.4,2.3
		c1.2,0.4,2.7,0.3,5.3-0.9c1.9-0.8,3.2-1.6,4.6-2.5c1.5-1,1.9-1.5,3.1-2.4c2.5-1.8,4.5-2.8,5.7-3.4c2.9-1.5,9.6-5.7,22.8-14.2
		c10.2-6.6,17.9-11.6,18.9-12.2c21.4-14.1,32.1-21.1,42.9-28.6c15.3-10.6,25.9-18.7,40.1-29.5c14.7-11.2,30.6-23.2,51.1-40.4
		c6.5-5.4,23.2-19.6,44.2-39.2c13-12.1,25.6-23.8,41.4-40.5c12.2-12.9,28.7-30.3,47.5-55.5c3-4,13.7-18.4,26.2-38.3
		c11.3-17.9,19-32.2,21.9-37.6c4.9-9.1,11.2-21,18.2-37.2c4.2-9.7,9.8-22.8,15.1-40.8c5.1-17,7.6-30.7,8.6-36.9
		c1.7-10.1,4.6-27.6,4.4-50.7c-0.2-23.5-3.6-41.4-4.9-47.8c-5.2-25.9-13.5-45.4-18.3-55.6c-10.9-23.1-23-39.3-28.9-46.7
		c-14.1-17.7-27.2-28.8-30.6-31.6c-17.1-14.3-32.2-22.2-41.4-27c-23.6-12.2-43.6-17.7-51.6-19.8c-22.7-5.8-42.2-7.2-55.9-7.4
		c-23.7-0.3-42,3.1-49.8,4.7c-11.3,2.3-33.1,7-58.2,20.7c0,0-21.3,11.6-38.3,27.3c-5.9,5.4-11.8,11.8-11.8,11.8
		c-5.2,5.7-8.7,10.1-9.6,11.1c-1,1.3-3.4,4.3-6.3,8.4c-2.1,3-4,5.7-5.8,8.6C-3188.5-2503.9-3189.8-2496.4-3191.5-2496.6z"/>
	<path class="st4" d="M-3369.5-2568.6c-58.9,0.4-101.3,30.4-114.3,39.9c-9.3,6.8-48.9,36.8-72.3,92.8
		c-26.2,62.6-15.7,118.4-9.7,149.9c10.6,56.1,34.2,98.3,37.8,97.1c3.8-1.2-18.9-49.2-16.2-118.7c0.8-20.8,2.9-58.2,22.7-99.2
		c2.6-5.4,46.1-92.5,141.3-121.9c54.8-16.9,98-5.9,99.2-14C-3280-2550-3322.1-2568.9-3369.5-2568.6z"/>
	<path class="st4" d="M-3137.3-1930.3c-3.1-4.2,49.6-40.5,122.2-117.3c43.9-46.6,80.7-86,114.5-148c13.3-24.3,36.2-67.3,49.8-128.2
		c3.9-17.5,12.5-57.5,11.3-110c-1.1-49.5-10.2-79.2-4.9-80.9c6.5-2,31.4,38.5,42.1,85.8c17.7,78.5-10.1,147.4-27.1,189.7
		c-25.1,62.3-58,103.6-76.9,127c-34.1,42.2-65.6,68.4-95.5,93C-3065.9-1966.5-3133.8-1925.7-3137.3-1930.3z"/>
	<g class="st5">
		<path class="st6" d="M-4168.5-1903c-0.2,0-0.2-0.3-0.8-1.7c-0.2-0.4-0.4-0.8-0.9-1.6c0,0-0.7-1.3-1.5-2.6c-2.7-4.4-5.6-8-5.6-8
			c-5.5-6.8-11.8-11.4-11.8-11.4c-6-4.4-11.4-6.6-14.9-8c-8.9-3.6-16.2-4.6-20.2-5.1c-10.2-1.3-18-0.6-19.9-0.4
			c-1.8,0.2-8.8,1-17.5,3.9c-9.8,3.3-16.6,7.4-18.5,8.6c-8.3,5.2-13.8,10.7-16.5,13.7c-2,2.2-7.1,7.9-11.7,16.7
			c-2.6,4.9-5.7,11.8-7.8,20.6c-2.5,10.6-2.2,19-2.1,24.4c0.5,13.3,3.3,23.1,4.9,28.5c3.8,12.8,8.7,21.9,12.2,28.2
			c4.1,7.4,7.8,12.8,11.1,17.6c7,10.2,13,17.2,14.3,18.8c6.2,7.3,11.1,12.1,18.5,19.1c12,11.6,21.8,19.7,24.2,21.6
			c1.9,1.6,14.7,12.1,30.2,22.6c7.1,4.8,16.1,10.6,17,11.2c0,0,5.1,3.1,8.9,5.6c0.3,0.2,1.7,1.1,3,1.9c0.2,0.1,0.6,0.4,1.2,0.8
			c0.3,0.2,0.8,0.5,1.4,0.9c0.7,0.4,1,0.7,1.1,0.7c0.9,0.6,1,0.7,1.2,0.8c0.4,0.2,0.9,0.1,1.9-0.3c0.7-0.3,1.2-0.6,1.6-0.9
			c0.5-0.4,0.7-0.5,1.1-0.9c0.9-0.7,1.6-1,2-1.2c1-0.5,3.4-2,8.2-5.1c3.7-2.3,6.4-4.1,6.7-4.4c7.6-5,11.5-7.5,15.3-10.2
			c5.5-3.8,9.3-6.7,14.3-10.5c5.3-4,10.9-8.3,18.2-14.5c2.3-1.9,8.3-7,15.8-14c4.6-4.3,9.1-8.5,14.8-14.5c4.4-4.6,10.2-10.8,17-19.8
			c1.1-1.4,4.9-6.6,9.4-13.7c4-6.4,6.8-11.5,7.8-13.4c1.7-3.3,4-7.5,6.5-13.3c1.5-3.5,3.5-8.1,5.4-14.6c1.8-6.1,2.7-11,3.1-13.2
			c0.6-3.6,1.7-9.9,1.6-18.1c-0.1-8.4-1.3-14.8-1.7-17.1c-1.9-9.3-4.8-16.2-6.6-19.9c-3.9-8.3-8.2-14-10.3-16.7
			c-5-6.3-9.7-10.3-10.9-11.3c-6.1-5.1-11.5-7.9-14.8-9.6c-8.4-4.4-15.6-6.3-18.4-7.1c-8.1-2.1-15.1-2.6-20-2.6
			c-8.5-0.1-15,1.1-17.8,1.7c-4,0.8-11.8,2.5-20.8,7.4c0,0-7.6,4.2-13.7,9.8c-2.1,1.9-4.2,4.2-4.2,4.2c-1.9,2-3.1,3.6-3.4,4
			c-0.4,0.5-1.2,1.6-2.3,3c-0.8,1.1-1.4,2-2.1,3.1C-4167.5-1905.6-4167.9-1902.9-4168.5-1903z"/>
		<path class="st7" d="M-4168.5-1903c-0.2,0-0.2-0.3-0.8-1.7c-0.2-0.4-0.4-0.8-0.9-1.6c0,0-0.7-1.3-1.5-2.6c-2.7-4.4-5.6-8-5.6-8
			c-5.5-6.8-11.8-11.4-11.8-11.4c-6-4.4-11.4-6.6-14.9-8c-8.9-3.6-16.2-4.6-20.2-5.1c-10.2-1.3-18-0.6-19.9-0.4
			c-1.8,0.2-8.8,1-17.5,3.9c-9.8,3.3-16.6,7.4-18.5,8.6c-8.3,5.2-13.8,10.7-16.5,13.7c-2,2.2-7.1,7.9-11.7,16.7
			c-2.6,4.9-5.7,11.8-7.8,20.6c-2.5,10.6-2.2,19-2.1,24.4c0.5,13.3,3.3,23.1,4.9,28.5c3.8,12.8,8.7,21.9,12.2,28.2
			c4.1,7.4,7.8,12.8,11.1,17.6c7,10.2,13,17.2,14.3,18.8c6.2,7.3,11.1,12.1,18.5,19.1c12,11.6,21.8,19.7,24.2,21.6
			c1.9,1.6,14.7,12.1,30.2,22.6c7.1,4.8,16.1,10.6,17,11.2c0,0,5.1,3.1,8.9,5.6c0.3,0.2,1.7,1.1,3,1.9c0.2,0.1,0.6,0.4,1.2,0.8
			c0.3,0.2,0.8,0.5,1.4,0.9c0.7,0.4,1,0.7,1.1,0.7c0.9,0.6,1,0.7,1.2,0.8c0.4,0.2,0.9,0.1,1.9-0.3c0.7-0.3,1.2-0.6,1.6-0.9
			c0.5-0.4,0.7-0.5,1.1-0.9c0.9-0.7,1.6-1,2-1.2c1-0.5,3.4-2,8.2-5.1c3.7-2.3,6.4-4.1,6.7-4.4c7.6-5,11.5-7.5,15.3-10.2
			c5.5-3.8,9.3-6.7,14.3-10.5c5.3-4,10.9-8.3,18.2-14.5c2.3-1.9,8.3-7,15.8-14c4.6-4.3,9.1-8.5,14.8-14.5c4.4-4.6,10.2-10.8,17-19.8
			c1.1-1.4,4.9-6.6,9.4-13.7c4-6.4,6.8-11.5,7.8-13.4c1.7-3.3,4-7.5,6.5-13.3c1.5-3.5,3.5-8.1,5.4-14.6c1.8-6.1,2.7-11,3.1-13.2
			c0.6-3.6,1.7-9.9,1.6-18.1c-0.1-8.4-1.3-14.8-1.7-17.1c-1.9-9.3-4.8-16.2-6.6-19.9c-3.9-8.3-8.2-14-10.3-16.7
			c-5-6.3-9.7-10.3-10.9-11.3c-6.1-5.1-11.5-7.9-14.8-9.6c-8.4-4.4-15.6-6.3-18.4-7.1c-8.1-2.1-15.1-2.6-20-2.6
			c-8.5-0.1-15,1.1-17.8,1.7c-4,0.8-11.8,2.5-20.8,7.4c0,0-7.6,4.2-13.7,9.8c-2.1,1.9-4.2,4.2-4.2,4.2c-1.9,2-3.1,3.6-3.4,4
			c-0.4,0.5-1.2,1.6-2.3,3c-0.8,1.1-1.4,2-2.1,3.1C-4167.5-1905.6-4167.9-1902.9-4168.5-1903z"/>
		<path class="st8" d="M-4232.1-1928.7c-21,0.1-36.2,10.9-40.9,14.3c-3.3,2.4-17.5,13.1-25.8,33.1c-9.3,22.4-5.6,42.3-3.5,53.6
			c3.8,20.1,12.2,35.1,13.5,34.7c1.3-0.4-6.8-17.6-5.8-42.4c0.3-7.4,1-20.8,8.1-35.5c0.9-1.9,16.5-33.1,50.5-43.6
			c19.6-6,35-2.1,35.5-5C-4200.1-1922-4215.2-1928.8-4232.1-1928.7z"/>
		<path class="st8" d="M-4149.2-1700.6c-1.1-1.5,17.7-14.5,43.6-41.9c15.7-16.6,28.8-30.7,40.9-52.9c4.7-8.7,12.9-24,17.8-45.8
			c1.4-6.3,4.5-20.6,4-39.3c-0.4-17.7-3.6-28.3-1.7-28.9c2.3-0.7,11.2,13.7,15,30.6c6.3,28-3.6,52.7-9.7,67.8
			c-9,22.3-20.7,37-27.5,45.4c-12.2,15.1-23.4,24.4-34.1,33.2C-4123.6-1713.6-4147.9-1699-4149.2-1700.6z"/>
	</g>
</g>
<g id="bg">
</g>
<g id="rouge_cap">
</g>
<g id="main_gauche">
</g>
<g id="bras">
</g>
<g id="cap">
</g>
<g id="pentalon">
</g>
<g id="veste">
</g>
<g id="Layer_10">
</g>
<g id="tete">
	<g id="oreilles">
	</g>
</g>
<g id="coeur_00000163071191275677165630000008266031259682182540_">
</g>
<g>
	<path class="st9" d="M706.9,822.6"/>
	<g>
		<g>
			<path class="st10" d="M355.9,614c-16.3,5-32.9,7.8-49.1,8c-55,0.8-109-27.7-125.3-36.4c-24.1-12.8-53.2-28.6-78.8-61.7
				c-16.3-21-40.6-52.6-40.4-94c0.1-21.2,6.6-41.1-3-47.5c-10.1-6.6-27.7,8.2-32.3,3c-7.1-7.9,29.4-47.1,22.2-55.6
				c-6.1-7.2-37.4,16.2-45.5,8.1c-6.9-6.9,6.9-32.9,20.2-49.5c1-1.2,2.2-2.7,3.6-4.4c8.4-10,24.3-26.5,49-35
				c21.9-7.5,34.8-3.2,47-16.2c4.5-4.7,6.8-9.7,16.3-19.6c0.3-0.3,7.5-7.7,16.5-14.8c25-19.9,55.3-31.1,57.5-32
				c0,0,30.1-10.9,62.8-12.5c90.4-4.3,167.6,65.1,175.8,72.8c24.2,22.4,74.9,69.1,82.9,139.4C547.3,473.4,454.9,583.9,355.9,614z"/>
			<path class="st11" d="M355.9,614c-16.3,5-32.9,7.8-49.1,8c-55,0.8-109-27.7-125.3-36.4c-24.1-12.8-53.2-28.6-78.8-61.7
				c-16.3-21-40.6-52.6-40.4-94c0.1-21.2,6.6-41.1-3-47.5c-10.1-6.6-27.7,8.2-32.3,3c-7.1-7.9,29.4-47.1,22.2-55.6
				c-6.1-7.2-37.4,16.2-45.5,8.1c-6.9-6.9,6.9-32.9,20.2-49.5c1-1.2,2.2-2.7,3.6-4.4c3.7,6.2,7.7,10.5,9.6,12.5
				c12.5,13.7,21.3,11.9,24.3,22.2c2.2,7.8-2.1,11.4,1,22.2c2.2,7.8,6.3,13,8.1,15.2c7.7,9.5,14.2,9.7,20.2,15.1
				c9.5,8.6,6.5,20.2,9.1,41.4c3.4,28.7,13.8,49.6,18.2,58.6c10.5,21.2,22.8,35.2,29.3,42.4c7.1,8,18.7,20.6,37.4,32.3
				c6,3.8,11.4,6.6,21.2,11.1c29.8,13.8,54.7,22.5,62.6,25.3c52.1,18,51.5,15.3,71.7,24.3C345.6,609.4,350.9,611.7,355.9,614z"/>
			<path class="st12" d="M355.9,614c-16.3,5-32.9,7.8-49.1,8c-55,0.8-109-27.7-125.3-36.4c-24.1-12.8-53.2-28.6-78.8-61.7
				c-16.3-21-40.6-52.6-40.4-94c0.1-21.2,6.6-41.1-3-47.5c-10.1-6.6-27.7,8.2-32.3,3c-7.1-7.9,29.4-47.1,22.2-55.6
				c-6.1-7.2-37.4,16.2-45.5,8.1c-6.9-6.9,6.9-32.9,20.2-49.5c1-1.2,2.2-2.7,3.6-4.4c8.4-10,24.3-26.5,49-35
				c21.9-7.5,34.8-3.2,47-16.2c4.5-4.7,6.8-9.7,16.3-19.6c0.3-0.3,7.5-7.7,16.5-14.8c25-19.9,55.3-31.1,57.5-32
				c0,0,30.1-10.9,62.8-12.5c90.4-4.3,167.6,65.1,175.8,72.8c24.2,22.4,74.9,69.1,82.9,139.4C547.3,473.4,454.9,583.9,355.9,614z"/>
			<path class="st13" d="M478,408c-7.6,66.2-73.5,127.1-139.9,143.4c-40.9,10.1-76.5,1.8-87.9-1c-14.3-3.5-52.7-13.4-86.9-47.5
				c-9.9-9.9-32.7-33.1-43.4-71.7c-11-39.3-3.1-71.5,0-83.9c12.1-47.4,41.3-75.3,51.5-84.9c2.2-2,4.3-3.9,6.5-5.8
				c21-17.7,40.2-25.9,45.2-27.9c33.8-13.8,63.1-12.4,76.6-11.6c11.6,0.7,36,2.4,63.4,15.1c37.7,17.5,58.2,45.1,73,65.5
				c20.7,28.5,40.2,55.4,42.4,90.9C478.9,395.1,478.7,401.6,478,408z"/>
			<path class="st14" d="M478,408c-5.3-12.5-12.3-26.6-22-40.6c-7.8-11.3-16.7-21.9-16.7-21.9c-4.9-5.8-15.3-17.9-29.5-30.5
				c-34.2-30.4-69.1-46.1-76.8-49.5c-7.8-3.4-25.6-10.8-49.5-16.2c-11.9-2.7-26.4-5.6-45.5-5.1c-2.9,0.1-15,0.5-31.3,4
				c-10,2.2-19.7,5.1-28.9,8.4c21-17.7,40.2-25.9,45.2-27.9c33.8-13.8,63.1-12.4,76.6-11.6c11.6,0.7,36,2.4,63.4,15.1
				c37.7,17.5,58.2,45.1,73,65.5c20.7,28.5,40.2,55.4,42.4,90.9C478.9,395.1,478.7,401.6,478,408z"/>
			<path class="st12" d="M478,409.6c-7.6,66.2-73.5,127.1-139.9,143.4c-40.9,10.1-76.5,1.8-87.9-1c-14.3-3.5-52.7-13.4-86.9-47.5
				c-9.9-9.9-32.7-33.1-43.4-71.7c-11-39.3-3.1-71.5,0-83.9c12.1-47.4,41.3-75.3,51.5-84.9c2.2-2,4.3-3.9,6.5-5.8
				c21-17.7,40.2-25.9,45.2-27.9c33.8-13.8,63.1-12.4,76.6-11.6c11.6,0.7,36,2.4,63.4,15.1c37.7,17.5,58.2,45.1,73,65.5
				c20.7,28.5,40.2,55.4,42.4,90.9C478.9,396.8,478.7,403.2,478,409.6z"/>
		</g>
		<g>
			<path class="st10" d="M744.1,612.4c16.3,5,32.9,7.8,49.1,8c55,0.8,109-27.7,125.3-36.4c24.1-12.8,53.2-28.6,78.8-61.7
				c16.3-21,40.6-52.6,40.4-94c-0.1-21.2-6.6-41.1,3-47.5c10.1-6.6,27.7,8.2,32.3,3c7.1-7.9-29.4-47.1-22.2-55.6
				c6.1-7.2,37.4,16.2,45.5,8.1c6.9-6.9-6.9-32.9-20.2-49.5c-1-1.2-2.2-2.7-3.6-4.4c-8.4-10-24.3-26.5-49-35
				c-21.9-7.5-34.8-3.2-47-16.2c-4.5-4.7-6.8-9.7-16.3-19.6c-0.3-0.3-7.5-7.7-16.5-14.8c-25-19.9-55.3-31.1-57.5-32
				c0,0-30.1-10.9-62.8-12.5c-90.3-4-167.4,65.4-175.7,73.1c-24.2,22.4-74.9,69.1-82.9,139.4C552.7,471.7,645.1,582.2,744.1,612.4z"
				/>
			<path class="st11" d="M744.1,612.4c16.3,5,32.9,7.8,49.1,8c55,0.8,109-27.7,125.3-36.4c24.1-12.8,53.2-28.6,78.8-61.7
				c16.3-21,40.6-52.6,40.4-94c-0.1-21.2-6.6-41.1,3-47.5c10.1-6.6,27.7,8.2,32.3,3c7.1-7.9-29.4-47.1-22.2-55.6
				c6.1-7.2,37.4,16.2,45.5,8.1c6.9-6.9-6.9-32.9-20.2-49.5c-1-1.2-2.2-2.7-3.6-4.4c-3.7,6.2-7.7,10.5-9.6,12.5
				c-12.5,13.7-21.3,11.9-24.3,22.2c-2.2,7.8,2.1,11.4-1,22.2c-2.2,7.8-6.3,13-8.1,15.2c-7.7,9.5-14.2,9.7-20.2,15.1
				c-9.5,8.6-6.5,20.2-9.1,41.4c-3.4,28.7-13.8,49.6-18.2,58.6c-10.5,21.2-22.8,35.2-29.3,42.4c-7.1,8-18.7,20.6-37.4,32.3
				c-6,3.8-11.4,6.6-21.2,11.1c-29.8,13.8-54.7,22.5-62.6,25.3c-52.1,18-51.5,15.3-71.7,24.3C754.4,607.7,749.1,610.1,744.1,612.4z"
				/>
			<path class="st12" d="M744.1,612.4c16.3,5,32.9,7.8,49.1,8c55,0.8,109-27.7,125.3-36.4c24.1-12.8,53.2-28.6,78.8-61.7
				c16.3-21,40.6-52.6,40.4-94c-0.1-21.2-6.6-41.1,3-47.5c10.1-6.6,27.7,8.2,32.3,3c7.1-7.9-29.4-47.1-22.2-55.6
				c6.1-7.2,37.4,16.2,45.5,8.1c6.9-6.9-6.9-32.9-20.2-49.5c-1-1.2-2.2-2.7-3.6-4.4c-8.4-10-24.3-26.5-49-35
				c-21.9-7.5-34.8-3.2-47-16.2c-4.5-4.7-6.8-9.7-16.3-19.6c-0.3-0.3-7.5-7.7-16.5-14.8c-25-19.9-55.3-31.1-57.5-32
				c0,0-30.1-10.9-62.8-12.5c-90.3-4-167.4,65.4-175.7,73.1c-24.2,22.4-74.9,69.1-82.9,139.4C552.7,471.7,645.1,582.2,744.1,612.4z"
				/>
			<path class="st13" d="M622,406.3c7.6,66.2,73.5,127.1,139.9,143.4c40.9,10.1,76.5,1.8,87.9-1c14.3-3.5,52.7-13.4,86.9-47.5
				c9.9-9.9,32.7-33.1,43.4-71.7c11-39.3,3.1-71.5,0-83.9c-12.1-47.4-41.3-75.3-51.5-84.9c-2.2-2-4.3-3.9-6.5-5.8
				c-21-17.7-40.2-25.9-45.2-27.9c-33.8-13.8-63.1-12.4-76.6-11.6c-11.6,0.7-36,2.4-63.4,15.1c-37.7,17.5-58.2,45.1-73,65.5
				c-20.7,28.5-40.2,55.4-42.4,90.9C621.1,393.5,621.3,399.9,622,406.3z"/>
			<path class="st14" d="M622,406.3c5.3-12.5,12.3-26.6,22-40.6c7.8-11.3,16.7-21.9,16.7-21.9c4.9-5.8,15.3-17.9,29.5-30.5
				c34.2-30.4,69.1-46.1,76.8-49.5c7.8-3.4,25.6-10.8,49.5-16.2c11.9-2.7,26.4-5.6,45.5-5.1c2.9,0.1,15,0.5,31.3,4
				c10,2.2,19.7,5.1,28.9,8.4C901.2,237.2,882,229,877,227c-33.8-13.8-63.1-12.4-76.6-11.6c-11.6,0.7-36,2.4-63.4,15.1
				c-37.7,17.5-58.2,45.1-73,65.5c-20.7,28.5-40.2,55.4-42.4,90.9C621.1,393.5,621.3,399.9,622,406.3z"/>
			<path class="st12" d="M622,408c7.6,66.2,73.5,127.1,139.9,143.4c40.9,10.1,76.5,1.8,87.9-1c14.3-3.5,52.7-13.4,86.9-47.5
				c9.9-9.9,32.7-33.1,43.4-71.7c11-39.3,3.1-71.5,0-83.9c-12.1-47.4-41.3-75.3-51.5-84.9c-2.2-2-4.3-3.9-6.5-5.8
				c-21-17.7-40.2-25.9-45.2-27.9c-33.8-13.8-63.1-12.4-76.6-11.6c-11.6,0.7-36,2.4-63.4,15.1c-37.7,17.5-58.2,45.1-73,65.5
				c-20.7,28.5-40.2,55.4-42.4,90.9C621.1,395.1,621.3,401.6,622,408z"/>
		</g>
	</g>
	<path class="st15" d="M861.5,786.3c-26.2,51.7-68.9,79.5-106.9,102.1c-3.1,1.9-6.2,3.7-9.3,5.5c-17.6,10.3-46.5,27.1-88.4,39.4
		c-76.2,22.4-139.4,13.6-169.7,9.1c-23.5-3.5-60.8-9.4-103.8-28.2c-11.1-4.8-22.5-10.5-34.2-17.3c-34.7-20-91.4-52.7-116.7-118.2
		c-4.8-12.6-15.1-40.1-12.7-73.5c0.4-5.1,1-10.5,2.1-15.9c0.4-1.9,1.3-6.1,3.1-11.9c2.8-9.1,5.8-15.8,8.5-21.7
		c11.6-25.4,11-24,11.9-26.1c5.6-13.4,7.5-24,9.8-37.7c2.1-12.5,2.9-25.4,4.6-51.1c0.7-10.4,0.9-15.7,1-19.2c0.4-13.2,0-19.7,0-30.8
		c0-13.7,0-24.5,1-34.4c2-17.9,7.3-30.8,13.1-44.5c3.4-8,15.8-36,41.7-69c12.8-16.2,29.3-36.9,56.8-56.8
		c20-14.5,37.8-22.8,58.8-32.6c8.7-4,15.9-6.9,24.1-9.4c11.9-3.6,22-5.2,25.9-5.7c23.5-3.3,31.5,0.5,35.4-5.1
		c5.5-7.9-6.7-21.2-1.5-26.8c5.7-6.1,24.6,5.3,27.8,0.5c1.5-2.3-2.3-5.8-6.5-15.7c-2.1-4.8-8.9-20.3-4.6-24.3
		c3.8-3.4,14.8,3,21.7,7.1c7.9,4.6,18.5,10.8,28.8,23.7c13,16.4,13.2,28.2,24.8,33.3c1.3,0.6,6.4,2.6,12.4,4.8
		c5.5,2,6.5,2.1,12.7,4.3c6,2.1,10.6,4,13.1,5c5.8,2.3,10.2,4.3,12.5,5.3c18.3,8,32.9,15.8,32.9,15.8c33,16.5,53.2,33.9,53.2,33.9
		c21.7,17.4,35.4,34.7,42.3,43.4c11.2,14.3,34.4,44.4,47.5,89.3c10,34.2,10.7,65.3,10.6,78c-0.1,13.4-1.1,24-0.5,48
		c0.8,31.8,3.5,42.5,5.1,48c3.1,10.9,4.7,11.2,11.6,32.3c6.6,20.4,4.9,17.5,8.8,29.5c5.6,17.1,8.6,23.5,10.3,33.5
		c0.2,1.2,0.4,2.4,0.6,3.7C885.4,739.2,871.7,766.2,861.5,786.3z"/>
	<path class="st16" d="M754.6,888.4c-3.1,1.9-6.2,3.7-9.3,5.5c-17.6,10.3-46.5,27.1-88.4,39.4c-76.2,22.4-139.4,13.6-169.7,9.1
		c-23.5-3.5-60.8-9.4-103.8-28.2c-7.1-38.8-12.8-71.1-11.4-115.8c2.2-73.9,21.9-128.3,27.3-142.5c21.6-57.2,48.9-91.1,59.1-103.1
		c20.3-23.8,36.7-42.5,65.2-50c35.7-9.3,66.4,5.2,74.3,9.1c7.6,3.7,29.9,15.8,59.1,62.1c18.9,30.1,30,57.6,44,100
		c13.1,40,26.9,82.3,40.9,150C746.9,848.8,751.3,869.9,754.6,888.4z"/>
	<path class="st17" d="M861.5,786.3c-26.2,51.7-68.9,79.5-106.9,102.1c-3.1,1.9-6.2,3.7-9.3,5.5c-17.6,10.3-46.5,27.1-88.4,39.4
		c-76.2,22.4-139.4,13.6-169.7,9.1c-23.5-3.5-60.8-9.4-103.8-28.2c-11.1-4.8-22.5-10.5-34.2-17.3c-34.7-20-91.4-52.7-116.7-118.2
		c-4.8-12.6-15.1-40.1-12.7-73.5c4.2,7.9,9,16.6,14.2,26.1c13.1,23.8,40.7,73.8,95.5,105.1c43.5,24.8,101.5,36.4,116.7,39.4
		c10.3,2,59.9,11.9,127.3,10.6c36.6-0.7,60.6-1.3,93-8.6c23-5.2,73.7-17.2,125.3-56.6c14.1-10.7,39.5-30.4,61.6-63.7
		c13-19.5,21.5-38.4,27.2-55.3c0.2,1.2,0.4,2.4,0.6,3.7C885.4,739.2,871.7,766.2,861.5,786.3z"/>
	<path class="st12" d="M862.1,786.3c-26.2,51.7-68.9,79.5-106.9,102.1c-3.1,1.9-6.2,3.7-9.3,5.5c-17.6,10.3-46.5,27.1-88.4,39.4
		c-76.2,22.4-139.4,13.6-169.7,9.1c-23.5-3.5-60.8-9.4-103.8-28.2c-11.1-4.8-22.5-10.5-34.2-17.3c-34.7-20-91.4-52.7-116.7-118.2
		c-4.8-12.6-15.1-40.1-12.7-73.5c0.4-5.1,1-10.5,2.1-15.9c0.4-1.9,1.3-6.1,3.1-11.9c2.8-9.1,5.8-15.8,8.5-21.7
		c11.6-25.4,11-24,11.9-26.1c5.6-13.4,7.5-24,9.8-37.7c2.1-12.5,2.9-25.4,4.6-51.1c0.7-10.4,0.9-15.7,1-19.2c0.4-13.2,0-19.7,0-30.8
		c0-13.7,0-24.5,1-34.4c2-17.9,7.3-30.8,13.1-44.5c3.4-8,15.8-36,41.7-69c12.8-16.2,29.3-36.9,56.8-56.8
		c20-14.5,37.8-22.8,58.8-32.6c8.7-4,15.9-6.9,24.1-9.4c11.9-3.6,22-5.2,25.9-5.7c23.5-3.3,31.5,0.5,35.4-5.1
		c5.5-7.9-6.7-21.2-1.5-26.8c5.7-6.1,24.6,5.3,27.8,0.5c1.5-2.3-2.3-5.8-6.5-15.7c-2.1-4.8-8.9-20.3-4.6-24.3
		c3.8-3.4,14.8,3,21.7,7.1c7.9,4.6,18.5,10.8,28.8,23.7c13,16.4,13.2,28.2,24.8,33.3c1.3,0.6,6.4,2.6,12.4,4.8
		c5.5,2,6.5,2.1,12.7,4.3c6,2.1,10.6,4,13.1,5c5.8,2.3,10.2,4.3,12.5,5.3c18.3,8,32.9,15.8,32.9,15.8c33,16.5,53.2,33.9,53.2,33.9
		c21.7,17.4,35.4,34.7,42.3,43.4c11.2,14.3,34.4,44.4,47.5,89.3c10,34.2,10.7,65.3,10.6,78c-0.1,13.4-1.1,24-0.5,48
		c0.8,31.8,3.5,42.5,5.1,48c3.1,10.9,4.7,11.2,11.6,32.3c6.6,20.4,4.9,17.5,8.8,29.5c5.6,17.1,8.6,23.5,10.3,33.5
		c0.2,1.2,0.4,2.4,0.6,3.7C886,739.2,872.3,766.2,862.1,786.3z"/>
	<g>
		<ellipse class="st18" cx="357" cy="634.3" rx="49.8" ry="21.3"/>
		<ellipse class="st18" cx="742" cy="634.3" rx="49.8" ry="21.3"/>
	</g>
	<g>
		<g>
			<path class="st19" d="M472,568c-2,4.7-6.4,7-6.8,7.2c-13.2,6.7-25,9.8-47.2,8.9c-22.9-0.9-37.3-3.8-48.2-11.5
				c-3.1-2.2-4.2-5.6-4.8-7.4c-6-19.1,18.4-57.8,50-59.4C450.8,504.1,479.5,550.4,472,568z"/>
			<ellipse class="st20" cx="410.5" cy="525.2" rx="16.2" ry="9"/>
		</g>
	</g>
	<g>
		<g>
			<path class="st19" d="M745.4,568c-2,4.7-6.4,7-6.8,7.2c-13.2,6.7-25,9.8-47.2,8.9c-22.9-0.9-37.3-3.8-48.2-11.5
				c-3.1-2.2-4.2-5.6-4.8-7.4c-6-19.1,18.4-57.8,50-59.4C724.3,504.1,753,550.4,745.4,568z"/>
			<ellipse class="st20" cx="683.9" cy="525.2" rx="16.2" ry="9"/>
		</g>
	</g>
	<path class="st21" d="M603.5,766.9v48.8c0,29.2-23.9,53.1-53.1,53.1c-29.2,0-53.1-23.9-53.1-53.1v-49.1c4.3,0.4,10.1,0.8,17.4-0.8
		c13-2.9,21.4-10.2,23.3-11.9c0.2-0.1,0.6-0.6,1.3-1.3c2.9-2.9,9.4-10.5,13-21c3.5,10.5,10.1,18.1,12.9,21c0.7,0.7,1.2,1.2,1.3,1.3
		c2,1.8,10.3,9,23.3,11.9C595.1,767,599.7,767.1,603.5,766.9z"/>
	<path class="st21" d="M623,637c-0.3,11.4-0.5,21.4-4.5,33.7c-2.7,8.4-6.9,21.2-17.9,31.1c-11.4,10.2-24.7,12.4-38,13
		c-2.8,0.1-5.5,0.2-8.2,0.2c-0.6,0-1.2,0-1.7,0s-1.1,0-1.6,0c-0.4,0-0.8,0-1.3,0h-0.3c-2.6,0-5.3-0.1-7.9-0.2
		c-13.9-0.4-28.1-2.3-40-13.1c-11-9.9-15.2-22.7-17.9-31.1c-4-12.3-4.2-22.3-4.5-33.7c-0.3-9.3-0.4-21.1,3.1-36
		c3.5-15.1,9.4-26.8,13.9-34.5c3.9-6.4,12.4-19.3,26.8-30.7c13.7-10.8,22.3-12.1,25-12.5c0.8-0.1,1.9-0.2,3-0.3
		c1.2,0.1,2.2,0.1,3,0.3c2.7,0.4,11.4,1.7,25,12.5c14.4,11.4,22.9,24.3,26.8,30.7c4.6,7.7,10.4,19.3,14,34.5
		C623.5,615.9,623.3,627.7,623,637z"/>
	<path class="st21" d="M668.2,703.7c0,0.6,0,2.1-0.2,3.9c-0.3,3.5-0.8,6.1-1.2,7.8c-0.3,1.3-0.5,2.2-0.6,2.5c0,0-0.7,2.7-1.5,5.1
		c-1.5,4.4-4.3,9.2-4.9,10.1c-3.6,6-7.3,10.3-9.2,12.3c-5.3,5.6-10.1,9-11.5,9.9c-12.4,8.5-24.9,10.6-31.1,11.2
		c-1.4,0.1-3,0.3-4.7,0.4c-3.7,0.2-8.3,0.1-13.7-1.1c-13-2.9-21.4-10.2-23.3-11.9c-0.1-0.1-0.6-0.6-1.3-1.3
		c-2.8-2.9-9.4-10.5-12.9-21c-3.5,10.5-10.1,18.1-13,21c-0.7,0.7-1.2,1.2-1.3,1.3c-1.9,1.8-10.3,9-23.3,11.9
		c-7.3,1.6-13.2,1.2-17.4,0.8c-0.3,0-0.6-0.1-1-0.1c-6.1-0.6-18.7-2.7-31.1-11.2c-1.3-0.9-6.2-4.3-11.5-9.9
		c-1.9-2.1-5.6-6.3-9.2-12.3c-0.5-0.9-3.4-5.7-4.9-10.1c-0.8-2.4-1.5-5.1-1.5-5.1c-0.1-0.3-0.3-1.2-0.6-2.5
		c-0.3-1.7-0.9-4.3-1.2-7.8c-0.2-1.9-0.2-3.3-0.2-3.9c0-0.6,0-2.3,0.1-4.5c0.1-2.4,0.2-3.7,0.4-4.4c0.8-2.8,4.1-6.5,8.5-6.2
		c3.7,0.2,6.9,3,7.8,6.8c-0.1,1.3-0.1,3.3,0,5.7c0.6,12.1,5.1,20.8,6.4,23.3c4.5,8.3,10.1,13.2,11.2,14.2c6.3,5.5,12.5,7.9,15.3,8.9
		c3.2,1.1,11.1,3.7,21.2,2.2c9.8-1.5,16.3-6.1,20.5-9c3.9-2.8,6-5.1,7.2-6.6c0.9-1.2,3-3.9,4.5-8c1.9-4.7,2.1-8.7,2.3-11v-0.2
		c2.6,0.1,5.3,0.1,7.9,0.2h0.3c0.4,0,0.8,0,1.3,0s1.1,0,1.6,0c0.6,0,1.2,0,1.7,0c2.7,0,5.5-0.1,8.2-0.2v0.2c0.1,2.3,0.4,6.3,2.3,11
		c1.6,4,3.6,6.8,4.5,8c1.2,1.6,3.3,3.9,7.2,6.6c4.1,3,10.6,7.5,20.5,9c10.1,1.5,18-1.1,21.2-2.2c2.9-1,9-3.5,15.3-8.9
		c1.1-1,6.7-5.9,11.2-14.2c1.4-2.5,5.8-11.2,6.5-23.3c0.1-2.4,0.1-4.3,0-5.7c0.9-3.9,4.1-6.6,7.8-6.8c4.5-0.3,7.7,3.5,8.5,6.2
		c0.2,0.8,0.3,2,0.4,4.4C668.2,701.4,668.2,703,668.2,703.7z"/>
	<path class="st22" d="M595.6,828.6c-0.5,17.9-23.4,34.6-45.2,34.4c-21.4-0.2-44.1-16.5-44.3-34.4c-0.2-12.1,10-21.4,14-25.1
		c2.8-2.6,13.6-12.2,30.3-12.5c19.7-0.3,32.1,12.6,34.1,14.8C588.2,809.8,595.8,818,595.6,828.6z"/>
	
		<ellipse transform="matrix(0.9035 -0.4286 0.4286 0.9035 -291.64 309.1104)" class="st23" cx="540.6" cy="802.2" rx="8.3" ry="4.7"/>
	<path class="st24" d="M472.9,752.2c-0.6,0.6-3,3-0.8,13.8c0.6,2.9,3.6,21.5,9.9,21.4c4.2-0.1,8.2-7.7,11-16.3
		c2.2-6.7,3.6-11.4,1.1-15c-2.2-3.2-6.2-4-10-4.7C480.3,750.7,475.6,749.8,472.9,752.2z"/>
	<path class="st24" d="M627.5,752.2c0.6,0.6,3,3,0.8,13.8c-0.6,2.9-3.6,21.5-9.9,21.4c-4.2-0.1-8.2-7.7-11-16.3
		c-2.2-6.7-3.6-11.4-1.1-15c2.2-3.2,6.2-4,10-4.7C620.2,750.7,624.8,749.8,627.5,752.2z"/>
	
		<ellipse transform="matrix(0.9476 -0.3196 0.3196 0.9476 -64.5186 161.5625)" class="st25" cx="460" cy="277.4" rx="38.2" ry="15.7"/>
	<circle class="st25" cx="411.8" cy="299.4" r="6.3"/>
</g>
<g id="main_droite_00000033364077448622048250000017637957640728368781_">
	<g>
		<g>
			<path class="st15" d="M-513.8,823.8c-0.3,0.3-0.4,0.6-0.6,0.8c-4,5.1-21.8,26.2-48.5,25.3c-29.8-1.1-59.4-29.5-57.1-63.4
				c0.6-9.6,3.8-18.3,8.6-25.9c10.2-16,28-26.7,46.2-28.9c23.4-2.8,51.5,7.8,62.1,32.3C-491,791.5-509.4,818-513.8,823.8z"/>
			<path class="st26" d="M-513.8,823.8c-0.3,0.3-0.4,0.6-0.6,0.8c-4,5.1-21.8,26.2-48.5,25.3c-29.8-1.1-59.4-29.5-57.1-63.4
				c0.6-9.6,3.8-18.3,8.6-25.9c2.1,7.2,4.4,12.8,6,16.5c6,13.9,11.5,26.8,25.2,36.4c13.7,9.6,28.7,11.3,35.1,12.1
				c9.6,1.1,17.1,0.3,21.1-0.1C-520.3,825-516.9,824.5-513.8,823.8z"/>
			<path class="st12" d="M-503,763.9c12.7,29.1-8.5,57.1-11.4,60.7c-4,5.1-21.8,26.2-48.5,25.3c-29.8-1.1-59.4-29.5-57.1-63.4
				c2.1-29.9,28-51.6,54.8-54.8C-541.8,728.8-513.6,739.4-503,763.9z"/>
		</g>
		<path class="st27" d="M-1384,505.1c-8.1-8.4-21.2-24.9-47.5-57.8c-12.5-15.6-17.9-22.8-21.5-34.7c-1.6-5.3-8.4-30.5,4.5-54.6
			c7.3-13.6,17.4-20.3,34.1-31.1c20.7-13.4,37.8-19.5,62.1-28c52-18.3,72.2-16.7,79.6-15.9c9.1,1,16.7,1.8,24.3,5.3
			c42,19.3,50.1,104.3,37.9,166c-8.8,44.7-37.9,126.1-81.1,128.1C-1309.3,583.2-1334.2,557.2-1384,505.1z"/>
		<path class="st28" d="M-1222.7,498.5c-14.2,40.3-37.9,82.4-68.9,83.9c-17.7,0.8-42.6-25.2-92.4-77.3c-8.1-8.5-21.2-24.9-47.5-57.8
			c-12.4-15.6-17.9-22.8-21.5-34.7c-1.6-5.3-8.4-30.5,4.5-54.6c4.7-8.8,10.6-14.7,18.7-20.7c7.4,13.3,16,24.8,25.3,37.3
			c24.8,33.3,49.9,53.3,65.2,65.2c14.3,11.2,39.5,30.9,74.2,45.5C-1249.2,492.1-1235.2,496.1-1222.7,498.5z"/>
		<path class="st12" d="M-1210.5,454.3c-2.5,12.7-6.6,28.3-12.3,44.2c-14.2,40.3-37.9,82.4-68.9,83.9c-17.7,0.8-42.6-25.2-92.4-77.3
			c-8.1-8.5-21.2-24.9-47.5-57.8c-12.4-15.6-17.9-22.8-21.5-34.7c-1.6-5.3-8.4-30.5,4.5-54.6c4.7-8.8,10.6-14.7,18.7-20.7
			c4.4-3.3,9.5-6.6,15.4-10.4c20.7-13.4,37.8-19.5,62.1-28c52-18.3,72.2-16.7,79.6-15.9c9.1,1,16.7,1.8,24.3,5.3
			C-1206.4,307.6-1198.3,392.7-1210.5,454.3z"/>
		<path class="st29" d="M-775.5,580.9c17.8,9.2,42.1-3.5,75.8-21.2c18.6-9.8,30-18.9,56.1-39.4c83.5-65.6,90.9-74.2,94-89.4
			c6-29.7-10.3-56.2-16.7-66.7c-20.5-33.4-52.2-45.8-66.7-51.5c-10.7-4.2-67-26.4-124.3,3c-11,5.7-52.2,26.9-65.2,69.7
			c-8.1,26.8,3.7,32.7,22.7,124.3C-789.7,558.1-789.4,573.7-775.5,580.9z"/>
		<path class="st9" d="M-852.8,520.2"/>
		<path class="st15" d="M-1334.7,484.8c0,13.5-4.4,25.9-11.8,36c-11.1,15.1-28.9,24.9-49,24.9c-33.6,0-60.8-27.3-60.8-60.9
			c0-20.1,9.8-38,24.8-49c10.1-7.4,22.5-11.8,36-11.8C-1361.9,424-1334.7,451.3-1334.7,484.8z"/>
		<path class="st26" d="M-1334.7,484.8c0,13.5-4.4,25.9-11.8,36c-9.2-14.4-22.3-32-40.4-49.6c-15.9-15.5-31.5-27-44.7-35.4
			c3.9-2.9,10.3-6.9,19.1-9.4c5.4-1.6,11.1-2.4,16.9-2.4C-1361.9,424-1334.7,451.3-1334.7,484.8z"/>
		<circle class="st12" cx="-1395.7" cy="484.9" r="60.8"/>
		<path class="st30" d="M-1131.2,629.9c-5.6,8.9-11.3,17.9-16.9,26.8c-7.3,11.6-14.6,23.2-21.9,34.7c-45-3.2-138.8-16.6-225.4-84.8
			c-33.1-26.1-57.3-54-74.7-78.1c21.2-8.9,42.3-17.7,63.5-26.6c24.5-10.2,49-20.5,73.4-30.7L-1131.2,629.9z"/>
		<path class="st30" d="M-835.4,643.5c5.6-8.9,11.3-17.9,16.9-26.8c7.3-11.6,14.6-23.2,21.9-34.7c45,3.2,138.8,16.6,225.4,84.8
			c33.1,26.1,57.3,54,74.7,78.1c-21.2,8.9-42.3,17.7-63.5,26.6c-24.5,10.2-49,20.5-73.4,30.7L-835.4,643.5z"/>
		<path class="st31" d="M-726.7,1139.5c-81.6,16.5-180.4,28.8-292.5,27.1c-96.1-1.4-181.7-12.8-254.1-27.7
			c-51.5-10.5-84.8-60.6-74.4-112.2c36.2-178.8,72.3-357.6,108.5-536.3c7.6-37.9,37.2-66.7,73.9-74.3c6.3-1.3,12.8-2,19.4-2h274.1
			c44.2,0,82.6,30.4,92.7,73.4l117.4,500.6l8.5,36.4C-640.9,1076.7-674.1,1128.9-726.7,1139.5z"/>
		<path class="st32" d="M-726.7,1139.5c-81.6,16.5-180.4,28.8-292.5,27.1c-96.1-1.4-181.7-12.8-254.1-27.7
			c-51.5-10.5-84.8-60.6-74.4-112.2c36.2-178.8,72.3-357.6,108.5-536.3c7.6-37.9,37.2-66.7,73.9-74.3c-1.2,5.2-2.9,12.3-5.4,22.3
			c-9.4,38-31.5,123.5-36.8,143.9c0,0-30.2,116.4-42.4,168.3c-5,21.2-10.2,43.8-10.2,43.8c-2.7,11.9-4.4,19.5-4.9,21.7
			c-1.3,5.9-3.8,16.9-6.7,30.6c0,0-5.8,27.1-12.6,61c-0.4,2.2-0.9,4.6-3.1,15.3c-3,14.7-3.1,15.7-3.4,17.1c0,0-2.4,14.4,1.5,31.1
			c5.2,21.9,30.5,35.9,48.5,45.5c46.2,24.7,89.9,28.2,96.3,28.8c94.3,8.9,173-1.7,279.3-15.9c13.8-1.8,37.3-5.1,67.4-10.6
			c27.2-5,49.8-9.9,65.9-13.7c31.6-7.3,53.9-12.5,70.3-17.1l8.5,36.4C-640.9,1076.7-674.1,1128.9-726.7,1139.5z"/>
		<path class="st12" d="M-726.7,1139.5c-81.6,16.5-180.4,28.8-292.5,27.1c-96.1-1.4-181.7-12.8-254.1-27.7
			c-51.5-10.5-84.8-60.6-74.4-112.2c36.2-178.8,72.3-357.6,108.5-536.3c7.6-37.9,37.2-66.7,73.9-74.3c6.3-1.3,12.8-2,19.4-2h274.1
			c44.2,0,82.6,30.4,92.7,73.4l117.4,500.6l8.5,36.4C-640.9,1076.7-674.1,1128.9-726.7,1139.5z"/>
		<path class="st31" d="M-800.7,1050.2c-2.8,23.7-5.8,40-6.6,44c-3.1,16.5-7.2,37.2-15.3,61.3c-1.9,5.6-4,11.5-6.4,17.5
			c-9.4,23.7-15.6,38.8-30.8,53.6c-7.2,7-17.6,16.9-34.3,20.7c-3.9,0.9-28.4,6-47-8.6c-5.5-4.4-9-9.2-12.1-14.6
			c-8.2-14.1-12.7-28.5-16.4-50.1c-1.5-8.6-2.9-18.4-4.3-29.7c-3.5-27.2-4.5-40.9-14.1-57.1c-9.8-16.4-17.7-17.2-20.2-17.2
			c-6.5,0-11.4,5.1-14.1,8.1c-8.1,8.5-10.5,18.8-12.6,33.9c-2.1,14.9-2.4,22.7-3.5,37.9c-0.9,11.6-1.8,20.7-2.8,27.8
			c-2.2,16.8-4.3,22.9-5.8,26.8c-3.6,9.2-7.2,18.1-16.1,26.4c-13.2,12.2-28.7,14.4-33.9,15c-4.1,0.5-16.5,1.7-30.8-3.5
			c-4.5-1.6-18.7-7.4-33.8-26.3c-15.5-19.4-21.1-39-26.3-58.6c-1.7-6.7-3.4-13.2-4.9-19.4l0,0c-10.8-43.6-16.3-74.5-16.3-74.5
			c-9.5-57-15.9-85.5-17.2-98c0,0-4.8-47.8-2.4-93.9c0.3-5.2,0.6-10.4,0.6-10.4s0.8-11.6,1.7-20c3-27.4,76.3-47,76.3-47
			c76.1-20.3,125.1-33.4,199.6-26.8c93.8,8.4,117.2,38.2,120.3,45.5c4.7,11.2,9.4,24.3,9.4,24.3c1.9,5.4,3.3,9.7,4,11.6
			c0,0,2.3,7.1,4.3,14.3c14.9,52.4,17.1,99.8,17.1,99.8C-794.9,998.8-800.3,1046-800.7,1050.2z"/>
		<path class="st32" d="M-1085.5,1193.2c13.3-2.3,24.9-7,44-15.7c-2.2,16.8-4.3,22.9-5.8,26.8c-3.6,9.2-7.2,18.1-16.1,26.4
			c-13.2,12.2-28.7,14.4-33.9,15c-4.1,0.5-16.5,1.7-30.8-3.5c-4.5-1.6-18.7-7.4-33.8-26.3c-15.5-19.4-21.1-39-26.3-58.6
			c-1.7-6.7-3.4-13.2-4.9-19.4c12,17.1,22.7,27.3,26.7,31c16.7,15.6,28.1,20.2,33.3,22C-1113.4,1197.8-1095.7,1195-1085.5,1193.2z"
			/>
		<path class="st32" d="M-822.6,1155.5c-1.9,5.6-4,11.5-6.4,17.5c-9.4,23.7-15.6,38.8-30.8,53.6c-7.2,7-17.6,16.9-34.3,20.7
			c-3.9,0.9-28.4,6-47-8.6c-5.5-4.4-9-9.2-12.1-14.6c-8.2-14.1-12.7-28.5-16.4-50.1c4.9,3.5,11,7.3,19.2,10.9
			c6.2,2.8,17.3,7.7,31.1,9.1c21.1,2.1,37-5.4,59.1-15.9C-860.4,1178.1-846.1,1171.3-822.6,1155.5z"/>
		<path class="st33" d="M-1126.4,887.5c0.1,54.3,1.5,111.2,4.5,170.3c3.4,65.9,8.7,128.8,15.1,188.4"/>
		<path class="st33" d="M-872.8,908.3c-0.3,48-2.7,100.3-8.3,156.1c-6.9,68.1-17.5,130.3-29.7,185.6"/>
		<path class="st12" d="M-800.7,1050.2c-2.8,23.7-5.8,40-6.6,44c-3.1,16.5-7.2,37.2-15.3,61.3c-1.9,5.6-4,11.5-6.4,17.5
			c-9.4,23.7-15.6,38.8-30.8,53.6c-7.2,7-17.6,16.9-34.3,20.7c-3.9,0.9-28.4,6-47-8.6c-5.5-4.4-9-9.2-12.1-14.6
			c-8.2-14.1-12.7-28.5-16.4-50.1c-1.5-8.6-2.9-18.4-4.3-29.7c-3.5-27.2-4.5-40.9-14.1-57.1c-9.8-16.4-17.7-17.2-20.2-17.2
			c-6.5,0-11.4,5.1-14.1,8.1c-8.1,8.5-10.5,18.8-12.6,33.9c-2.1,14.9-2.4,22.7-3.5,37.9c-0.9,11.6-1.8,20.7-2.8,27.8
			c-2.2,16.8-4.3,22.9-5.8,26.8c-3.6,9.2-7.2,18.1-16.1,26.4c-13.2,12.2-28.7,14.4-33.9,15c-4.1,0.5-16.5,1.7-30.8-3.5
			c-4.5-1.6-18.7-7.4-33.8-26.3c-15.5-19.4-21.1-39-26.3-58.6c-1.7-6.7-3.4-13.2-4.9-19.4l0,0c-10.8-43.6-16.3-74.5-16.3-74.5
			c-9.5-57-15.9-85.5-17.2-98c0,0-4.8-47.8-2.4-93.9c0.3-5.2,0.6-10.4,0.6-10.4s0.8-11.6,1.7-20c3-27.4,76.3-47,76.3-47
			c76.1-20.3,125.1-33.4,199.6-26.8c93.8,8.4,117.2,38.2,120.3,45.5c4.7,11.2,9.4,24.3,9.4,24.3c1.9,5.4,3.3,9.7,4,11.6
			c0,0,2.3,7.1,4.3,14.3c14.9,52.4,17.1,99.8,17.1,99.8C-794.9,998.8-800.3,1046-800.7,1050.2z"/>
		<path class="st31" d="M-770.5,983.5c-56.1,17.3-139.1,35.9-240.5,34.4c-91.7-1.4-167.2-18.8-220.3-35.4
			c-0.9-20.9-1.2-44.1-0.4-69.3c1.4-44,6.1-93.8,16.7-147.9c17.8-91.2,46.6-165.3,72.4-219.6c92.7-4.3,185.4-8.5,278-12.8
			c22.8,63.3,45.1,137.4,62.6,221.3c15.3,73.3,24.3,141.4,29.3,202.1C-771.8,965.6-771.1,974.6-770.5,983.5z"/>
		<path class="st32" d="M-770.5,983.5c-56.1,17.3-139.1,35.9-240.5,34.4c-91.7-1.4-167.2-18.8-220.3-35.4
			c-0.9-20.9-1.2-44.1-0.4-69.3c8.4,8.7,17.1,16.9,23.6,21.8c15.8,12.1,48.9,26.1,150.5,38.4c35.6,4.3,93.7,11,170.5,3.5
			c0,0,55.8-5.5,114.5-20.6C-771.8,965.6-771.1,974.6-770.5,983.5z"/>
		<path class="st12" d="M-1049.4,610.7c19.7,88.2,35.5,193.8,38.4,313.2c0.8,34.9,0.7,64.2-0.6,96.3"/>
		<path class="st12" d="M-770.5,983.5c-56.1,17.3-139.1,35.9-240.5,34.4c-91.7-1.4-167.2-18.8-220.3-35.4
			c-0.9-20.9-1.2-44.1-0.4-69.3c1.4-44,6.1-93.8,16.7-147.9c17.8-91.2,46.6-165.3,72.4-219.6c92.7-4.3,185.4-8.5,278-12.8
			c22.8,63.3,45.1,137.4,62.6,221.3c15.3,73.3,24.3,141.4,29.3,202.1C-771.8,965.6-771.1,974.6-770.5,983.5z"/>
		<circle class="st34" cx="-1011.4" cy="931.8" r="18.6"/>
		<circle class="st34" cx="-1012.7" cy="857.9" r="18.6"/>
		<circle class="st34" cx="-1022" cy="783.9" r="18.6"/>
		<g>
			
				<rect x="-1102" y="544.4" transform="matrix(0.737 -0.6759 0.6759 0.737 -688.4355 -522.9116)" class="st12" width="171.7" height="157.5"/>
		</g>
		<path class="st29" d="M-1029.1,720.6c-28.4,7.8-56.8,15.7-85.1,23.5c-1-16.3-1.4-34.1-0.8-53.3c0.6-18.3,2.1-35.3,4-50.8
			c23.7,6.6,58.2,23.9,81.8,30.6C-1025.5,690.8-1032.7,700.4-1029.1,720.6z"/>
		<path class="st29" d="M-1008.3,720.6c28.4,7.8,56.8,15.7,85.1,23.5c1-16.3,1.4-34.1,0.8-53.3c-0.6-18.3-2.1-35.3-4-50.8
			c-23.7,6.6-58.2,23.9-81.8,30.6C-1012,690.8-1004.7,700.4-1008.3,720.6z"/>
		<circle class="st29" cx="-1015" cy="695.5" r="30.3"/>
		<g>
			<g>
				<path class="st10" d="M-1203.8,311.6c-16.3,5-32.9,7.8-49.1,8c-55,0.8-109-27.7-125.3-36.4c-24.1-12.8-53.2-28.6-78.8-61.7
					c-16.3-21-40.6-52.6-40.4-94c0.1-21.2,6.6-41.1-3-47.5c-10.1-6.6-27.7,8.2-32.3,3c-7.1-7.9,29.4-47.1,22.2-55.6
					c-6.1-7.2-37.4,16.2-45.5,8.1c-6.9-6.9,6.9-32.9,20.2-49.5c1-1.2,2.2-2.7,3.6-4.4c8.4-10,24.3-26.5,49-35
					c21.9-7.5,34.8-3.2,47-16.2c4.5-4.7,6.8-9.7,16.3-19.6c0.3-0.3,7.5-7.7,16.5-14.8c25-19.9,55.3-31.1,57.5-32
					c0,0,30.1-10.9,62.8-12.5c90.4-4.3,167.6,65.1,175.8,72.8c24.2,22.4,74.9,69.1,82.9,139.4
					C-1012.4,171-1104.8,281.5-1203.8,311.6z"/>
				<path class="st11" d="M-1203.8,311.6c-16.3,5-32.9,7.8-49.1,8c-55,0.8-109-27.7-125.3-36.4c-24.1-12.8-53.2-28.6-78.8-61.7
					c-16.3-21-40.6-52.6-40.4-94c0.1-21.2,6.6-41.1-3-47.5c-10.1-6.6-27.7,8.2-32.3,3c-7.1-7.9,29.4-47.1,22.2-55.6
					c-6.1-7.2-37.4,16.2-45.5,8.1c-6.9-6.9,6.9-32.9,20.2-49.5c1-1.2,2.2-2.7,3.6-4.4c3.7,6.2,7.7,10.5,9.6,12.5
					c12.5,13.7,21.3,11.9,24.3,22.2c2.2,7.8-2.1,11.4,1,22.2c2.2,7.8,6.3,13,8.1,15.2c7.7,9.5,14.2,9.7,20.2,15.1
					c9.5,8.6,6.5,20.2,9.1,41.4c3.4,28.7,13.8,49.6,18.2,58.6c10.5,21.2,22.8,35.2,29.3,42.4c7.1,8,18.7,20.6,37.4,32.3
					c6,3.8,11.4,6.6,21.2,11.1c29.8,13.8,54.7,22.5,62.6,25.3c52.1,18,51.5,15.3,71.7,24.3C-1214.1,307-1208.8,309.3-1203.8,311.6z"
					/>
				<path class="st12" d="M-1203.8,311.6c-16.3,5-32.9,7.8-49.1,8c-55,0.8-109-27.7-125.3-36.4c-24.1-12.8-53.2-28.6-78.8-61.7
					c-16.3-21-40.6-52.6-40.4-94c0.1-21.2,6.6-41.1-3-47.5c-10.1-6.6-27.7,8.2-32.3,3c-7.1-7.9,29.4-47.1,22.2-55.6
					c-6.1-7.2-37.4,16.2-45.5,8.1c-6.9-6.9,6.9-32.9,20.2-49.5c1-1.2,2.2-2.7,3.6-4.4c8.4-10,24.3-26.5,49-35
					c21.9-7.5,34.8-3.2,47-16.2c4.5-4.7,6.8-9.7,16.3-19.6c0.3-0.3,7.5-7.7,16.5-14.8c25-19.9,55.3-31.1,57.5-32
					c0,0,30.1-10.9,62.8-12.5c90.4-4.3,167.6,65.1,175.8,72.8c24.2,22.4,74.9,69.1,82.9,139.4
					C-1012.4,171-1104.8,281.5-1203.8,311.6z"/>
				<path class="st13" d="M-1081.7,105.6c-7.6,66.2-73.5,127.1-139.9,143.4c-40.9,10.1-76.5,1.8-87.9-1
					c-14.3-3.5-52.7-13.4-86.9-47.5c-9.9-9.9-32.7-33.1-43.4-71.7c-11-39.3-3.1-71.5,0-83.9c12.1-47.4,41.3-75.3,51.5-84.9
					c2.2-2,4.3-3.9,6.5-5.8c21-17.7,40.2-25.9,45.2-27.9c33.8-13.8,63.1-12.4,76.6-11.6c11.6,0.7,36,2.4,63.4,15.1
					c37.7,17.5,58.2,45.1,73,65.5c20.7,28.5,40.2,55.4,42.4,90.9C-1080.8,92.7-1081,99.2-1081.7,105.6z"/>
				<path class="st14" d="M-1081.7,105.6c-5.3-12.5-12.3-26.6-22-40.6c-7.8-11.3-16.7-21.9-16.7-21.9c-4.9-5.8-15.3-17.9-29.5-30.5
					c-34.2-30.4-69.1-46.1-76.8-49.5c-7.8-3.4-25.6-10.8-49.5-16.2c-11.9-2.7-26.4-5.6-45.5-5.1c-2.9,0.1-15,0.5-31.3,4
					c-10,2.2-19.7,5.1-28.9,8.4c21-17.7,40.2-25.9,45.2-27.9c33.8-13.8,63.1-12.4,76.6-11.6c11.6,0.7,36,2.4,63.4,15.1
					c37.7,17.5,58.2,45.1,73,65.5c20.7,28.5,40.2,55.4,42.4,90.9C-1080.8,92.7-1081,99.2-1081.7,105.6z"/>
				<path class="st12" d="M-1081.7,107.2c-7.6,66.2-73.5,127.1-139.9,143.4c-40.9,10.1-76.5,1.8-87.9-1
					c-14.3-3.5-52.7-13.4-86.9-47.5c-9.9-9.9-32.7-33.1-43.4-71.7c-11-39.3-3.1-71.5,0-83.9c12.1-47.4,41.3-75.3,51.5-84.9
					c2.2-2,4.3-3.9,6.5-5.8c21-17.7,40.2-25.9,45.2-27.9c33.8-13.8,63.1-12.4,76.6-11.6c11.6,0.7,36,2.4,63.4,15.1
					c37.7,17.5,58.2,45.1,73,65.5c20.7,28.5,40.2,55.4,42.4,90.9C-1080.8,94.4-1081,100.8-1081.7,107.2z"/>
			</g>
			<g>
				<path class="st10" d="M-815.6,310c16.3,5,32.9,7.8,49.1,8c55,0.8,109-27.7,125.3-36.4c24.1-12.8,53.2-28.6,78.8-61.7
					c16.3-21,40.6-52.6,40.4-94c-0.1-21.2-6.6-41.1,3-47.5c10.1-6.6,27.7,8.2,32.3,3c7.1-7.9-29.4-47.1-22.2-55.6
					c6.1-7.2,37.4,16.2,45.5,8.1c6.9-6.9-6.9-32.9-20.2-49.5c-1-1.2-2.2-2.7-3.6-4.4c-8.4-10-24.3-26.5-49-35
					c-21.9-7.5-34.8-3.2-47-16.2c-4.5-4.7-6.8-9.7-16.3-19.6c-0.3-0.3-7.5-7.7-16.5-14.8c-25-19.9-55.3-31.1-57.5-32
					c0,0-30.1-10.9-62.8-12.5c-90.3-4-167.4,65.4-175.7,73.1c-24.2,22.4-74.9,69.1-82.9,139.4C-1007,169.3-914.6,279.8-815.6,310z"
					/>
				<path class="st11" d="M-815.6,310c16.3,5,32.9,7.8,49.1,8c55,0.8,109-27.7,125.3-36.4c24.1-12.8,53.2-28.6,78.8-61.7
					c16.3-21,40.6-52.6,40.4-94c-0.1-21.2-6.6-41.1,3-47.5c10.1-6.6,27.7,8.2,32.3,3c7.1-7.9-29.4-47.1-22.2-55.6
					c6.1-7.2,37.4,16.2,45.5,8.1c6.9-6.9-6.9-32.9-20.2-49.5c-1-1.2-2.2-2.7-3.6-4.4c-3.7,6.2-7.7,10.5-9.6,12.5
					c-12.5,13.7-21.3,11.9-24.3,22.2c-2.2,7.8,2.1,11.4-1,22.2c-2.2,7.8-6.3,13-8.1,15.2c-7.7,9.5-14.2,9.7-20.2,15.1
					c-9.5,8.6-6.5,20.2-9.1,41.4c-3.4,28.7-13.8,49.6-18.2,58.6c-10.5,21.2-22.8,35.2-29.3,42.4c-7.1,8-18.7,20.6-37.4,32.3
					c-6,3.8-11.4,6.6-21.2,11.1c-29.8,13.8-54.7,22.5-62.6,25.3c-52.1,18-51.5,15.3-71.7,24.3C-805.3,305.3-810.6,307.7-815.6,310z"
					/>
				<path class="st12" d="M-815.6,310c16.3,5,32.9,7.8,49.1,8c55,0.8,109-27.7,125.3-36.4c24.1-12.8,53.2-28.6,78.8-61.7
					c16.3-21,40.6-52.6,40.4-94c-0.1-21.2-6.6-41.1,3-47.5c10.1-6.6,27.7,8.2,32.3,3c7.1-7.9-29.4-47.1-22.2-55.6
					c6.1-7.2,37.4,16.2,45.5,8.1c6.9-6.9-6.9-32.9-20.2-49.5c-1-1.2-2.2-2.7-3.6-4.4c-8.4-10-24.3-26.5-49-35
					c-21.9-7.5-34.8-3.2-47-16.2c-4.5-4.7-6.8-9.7-16.3-19.6c-0.3-0.3-7.5-7.7-16.5-14.8c-25-19.9-55.3-31.1-57.5-32
					c0,0-30.1-10.9-62.8-12.5c-90.3-4-167.4,65.4-175.7,73.1c-24.2,22.4-74.9,69.1-82.9,139.4C-1007,169.3-914.6,279.8-815.6,310z"
					/>
				<path class="st13" d="M-937.7,103.9c7.6,66.2,73.5,127.1,139.9,143.4c40.9,10.1,76.5,1.8,87.9-1c14.3-3.5,52.7-13.4,86.9-47.5
					c9.9-9.9,32.7-33.1,43.4-71.7c11-39.3,3.1-71.5,0-83.9c-12.1-47.4-41.3-75.3-51.5-84.9c-2.2-2-4.3-3.9-6.5-5.8
					c-21-17.7-40.2-25.9-45.2-27.9c-33.8-13.8-63.1-12.4-76.6-11.6c-11.6,0.7-36,2.4-63.4,15.1c-37.7,17.5-58.2,45.1-73,65.5
					C-916.5,22.1-936,49-938.2,84.5C-938.6,91.1-938.4,97.5-937.7,103.9z"/>
				<path class="st14" d="M-937.7,103.9c5.3-12.5,12.3-26.6,22-40.6C-907.9,52-899,41.4-899,41.4c4.9-5.8,15.3-17.9,29.5-30.5
					c34.2-30.4,69.1-46.1,76.8-49.5c7.8-3.4,25.6-10.8,49.5-16.2c11.9-2.7,26.4-5.6,45.5-5.1c2.9,0.1,15,0.5,31.3,4
					c10,2.2,19.7,5.1,28.9,8.4c-21-17.7-40.2-25.9-45.2-27.9c-33.8-13.8-63.1-12.4-76.6-11.6c-11.6,0.7-36,2.4-63.4,15.1
					c-37.7,17.5-58.2,45.1-73,65.5c-20.7,28.5-40.2,55.4-42.4,90.9C-938.6,91.1-938.4,97.5-937.7,103.9z"/>
				<path class="st12" d="M-937.7,105.6c7.6,66.2,73.5,127.1,139.9,143.4c40.9,10.1,76.5,1.8,87.9-1c14.3-3.5,52.7-13.4,86.9-47.5
					c9.9-9.9,32.7-33.1,43.4-71.7c11-39.3,3.1-71.5,0-83.9c-12.1-47.4-41.3-75.3-51.5-84.9c-2.2-2-4.3-3.9-6.5-5.8
					c-21-17.7-40.2-25.9-45.2-27.9c-33.8-13.8-63.1-12.4-76.6-11.6c-11.6,0.7-36,2.4-63.4,15.1c-37.7,17.5-58.2,45.1-73,65.5
					c-20.7,28.5-40.2,55.4-42.4,90.9C-938.6,92.7-938.4,99.2-937.7,105.6z"/>
			</g>
		</g>
		<path class="st15" d="M-698.2,483.9c-26.2,51.7-68.9,79.5-106.9,102.1c-3.1,1.9-6.2,3.7-9.3,5.5c-17.6,10.3-46.5,27.1-88.4,39.4
			c-76.2,22.4-139.4,13.6-169.7,9.1c-23.5-3.5-60.8-9.4-103.8-28.2c-11.1-4.8-22.5-10.5-34.2-17.3c-34.7-20-91.4-52.7-116.7-118.2
			c-4.8-12.6-15.1-40.1-12.7-73.5c0.4-5.1,1-10.5,2.1-15.9c0.4-1.9,1.3-6.1,3.1-11.9c2.8-9.1,5.8-15.8,8.5-21.7
			c11.6-25.4,11-24,11.9-26.1c5.6-13.4,7.5-24,9.8-37.7c2.1-12.5,2.9-25.4,4.6-51.1c0.7-10.4,0.9-15.7,1-19.2
			c0.4-13.2,0-19.7,0-30.8c0-13.7,0-24.5,1-34.4c2-17.9,7.3-30.8,13.1-44.5c3.4-8,15.8-36,41.7-69c12.8-16.2,29.3-36.9,56.8-56.8
			c20-14.5,37.8-22.8,58.8-32.6c8.7-4,15.9-6.9,24.1-9.4c11.9-3.6,22-5.2,25.9-5.7c23.5-3.3,31.5,0.5,35.4-5.1
			c5.5-7.9-6.7-21.2-1.5-26.8c5.7-6.1,24.6,5.3,27.8,0.5c1.5-2.3-2.3-5.8-6.5-15.7c-2.1-4.8-8.9-20.3-4.6-24.3
			c3.8-3.4,14.8,3,21.7,7.1c7.9,4.6,18.5,10.8,28.8,23.7c13,16.4,13.2,28.2,24.8,33.3c1.3,0.6,6.4,2.6,12.4,4.8
			c5.5,2,6.5,2.1,12.7,4.3c6,2.1,10.6,4,13.1,5c5.8,2.3,10.2,4.3,12.5,5.3c18.3,8,32.9,15.8,32.9,15.8c33,16.5,53.2,33.9,53.2,33.9
			c21.7,17.4,35.4,34.7,42.3,43.4c11.2,14.3,34.4,44.4,47.5,89.3c10,34.2,10.7,65.3,10.6,78c-0.1,13.4-1.1,24-0.5,48
			c0.8,31.8,3.5,42.5,5.1,48c3.1,10.9,4.7,11.2,11.6,32.3c6.6,20.4,4.9,17.5,8.8,29.5c5.6,17.1,8.6,23.5,10.3,33.5
			c0.2,1.2,0.4,2.4,0.6,3.7C-674.3,436.8-688,463.8-698.2,483.9z"/>
		<path class="st16" d="M-805.1,586c-3.1,1.9-6.2,3.7-9.3,5.5c-17.6,10.3-46.5,27.1-88.4,39.4c-76.2,22.4-139.4,13.6-169.7,9.1
			c-23.5-3.5-60.8-9.4-103.8-28.2c-7.1-38.8-12.8-71.1-11.4-115.8c2.2-73.9,21.9-128.3,27.3-142.5c21.6-57.2,48.9-91.1,59.1-103.1
			c20.3-23.8,36.7-42.5,65.2-50c35.7-9.3,66.4,5.2,74.3,9.1c7.6,3.7,29.9,15.8,59.1,62.1c18.9,30.1,30,57.6,44,100
			c13.1,40,26.9,82.3,40.9,150C-812.8,546.4-808.4,567.5-805.1,586z"/>
		<path class="st17" d="M-698.2,483.9c-26.2,51.7-68.9,79.5-106.9,102.1c-3.1,1.9-6.2,3.7-9.3,5.5c-17.6,10.3-46.5,27.1-88.4,39.4
			c-76.2,22.4-139.4,13.6-169.7,9.1c-23.5-3.5-60.8-9.4-103.8-28.2c-11.1-4.8-22.5-10.5-34.2-17.3c-34.7-20-91.4-52.7-116.7-118.2
			c-4.8-12.6-15.1-40.1-12.7-73.5c4.2,7.9,9,16.6,14.2,26.1c13.1,23.8,40.7,73.8,95.5,105.1c43.5,24.8,101.5,36.4,116.7,39.4
			c10.3,2,59.9,11.9,127.3,10.6c36.6-0.7,60.6-1.3,93-8.6c23-5.2,73.7-17.2,125.3-56.6c14.1-10.7,39.5-30.4,61.6-63.7
			c13-19.5,21.5-38.4,27.2-55.3c0.2,1.2,0.4,2.4,0.6,3.7C-674.3,436.8-688,463.8-698.2,483.9z"/>
		<path class="st12" d="M-697.6,483.9c-26.2,51.7-68.9,79.5-106.9,102.1c-3.1,1.9-6.2,3.7-9.3,5.5c-17.6,10.3-46.5,27.1-88.4,39.4
			c-76.2,22.4-139.4,13.6-169.7,9.1c-23.5-3.5-60.8-9.4-103.8-28.2c-11.1-4.8-22.5-10.5-34.2-17.3c-34.7-20-91.4-52.7-116.7-118.2
			c-4.8-12.6-15.1-40.1-12.7-73.5c0.4-5.1,1-10.5,2.1-15.9c0.4-1.9,1.3-6.1,3.1-11.9c2.8-9.1,5.8-15.8,8.5-21.7
			c11.6-25.4,11-24,11.9-26.1c5.6-13.4,7.5-24,9.8-37.7c2.1-12.5,2.9-25.4,4.6-51.1c0.7-10.4,0.9-15.7,1-19.2
			c0.4-13.2,0-19.7,0-30.8c0-13.7,0-24.5,1-34.4c2-17.9,7.3-30.8,13.1-44.5c3.4-8,15.8-36,41.7-69c12.8-16.2,29.3-36.9,56.8-56.8
			c20-14.5,37.8-22.8,58.8-32.6c8.7-4,15.9-6.9,24.1-9.4c11.9-3.6,22-5.2,25.9-5.7c23.5-3.3,31.5,0.5,35.4-5.1
			c5.5-7.9-6.7-21.2-1.5-26.8c5.7-6.1,24.6,5.3,27.8,0.5c1.5-2.3-2.3-5.8-6.5-15.7c-2.1-4.8-8.9-20.3-4.6-24.3
			c3.8-3.4,14.8,3,21.7,7.1c7.9,4.6,18.5,10.8,28.8,23.7c13,16.4,13.2,28.2,24.8,33.3c1.3,0.6,6.4,2.6,12.4,4.8
			c5.5,2,6.5,2.1,12.7,4.3c6,2.1,10.6,4,13.1,5c5.8,2.3,10.2,4.3,12.5,5.3c18.3,8,32.9,15.8,32.9,15.8c33,16.5,53.2,33.9,53.2,33.9
			c21.7,17.4,35.4,34.7,42.3,43.4c11.2,14.3,34.4,44.4,47.5,89.3c10,34.2,10.7,65.3,10.6,78c-0.1,13.4-1.1,24-0.5,48
			c0.8,31.8,3.5,42.5,5.1,48c3.1,10.9,4.7,11.2,11.6,32.3c6.6,20.4,4.9,17.5,8.8,29.5c5.6,17.1,8.6,23.5,10.3,33.5
			c0.2,1.2,0.4,2.4,0.6,3.7C-673.7,436.8-687.4,463.8-697.6,483.9z"/>
		<g>
			<ellipse class="st18" cx="-1202.7" cy="331.9" rx="49.8" ry="21.3"/>
			<ellipse class="st18" cx="-817.7" cy="331.9" rx="49.8" ry="21.3"/>
		</g>
		<g>
			<g>
				<path class="st19" d="M-1087.7,265.6c-2,4.7-6.4,7-6.8,7.2c-13.2,6.7-25,9.8-47.2,8.9c-22.9-0.9-37.3-3.8-48.2-11.5
					c-3.1-2.2-4.2-5.6-4.8-7.4c-6-19.1,18.4-57.8,50-59.4C-1108.9,201.7-1080.2,248-1087.7,265.6z"/>
				<ellipse class="st20" cx="-1149.2" cy="222.8" rx="16.2" ry="9"/>
			</g>
		</g>
		<g>
			<g>
				<path class="st19" d="M-814.3,265.6c-2,4.7-6.4,7-6.8,7.2c-13.2,6.7-25,9.8-47.2,8.9c-22.9-0.9-37.3-3.8-48.2-11.5
					c-3.1-2.2-4.2-5.6-4.8-7.4c-6-19.1,18.4-57.8,50-59.4C-835.4,201.7-806.7,248-814.3,265.6z"/>
				<ellipse class="st20" cx="-875.8" cy="222.8" rx="16.2" ry="9"/>
			</g>
		</g>
		<path class="st21" d="M-956.2,464.5v48.8c0,29.2-23.9,53.1-53.1,53.1s-53.1-23.9-53.1-53.1v-49.1c4.3,0.4,10.1,0.8,17.4-0.8
			c13-2.9,21.4-10.2,23.3-11.9c0.2-0.1,0.6-0.6,1.3-1.3c2.9-2.9,9.4-10.5,13-21c3.5,10.5,10.1,18.1,12.9,21c0.7,0.7,1.2,1.2,1.3,1.3
			c2,1.8,10.3,9,23.3,11.9C-964.6,464.6-960,464.7-956.2,464.5z"/>
		<path class="st21" d="M-936.7,334.6c-0.3,11.4-0.5,21.4-4.5,33.7c-2.7,8.4-6.9,21.2-17.9,31.1c-11.4,10.2-24.7,12.4-38,13
			c-2.8,0.1-5.5,0.2-8.2,0.2c-0.6,0-1.2,0-1.7,0s-1.1,0-1.6,0c-0.4,0-0.8,0-1.3,0h-0.3c-2.6,0-5.3-0.1-7.9-0.2
			c-13.9-0.4-28.1-2.3-40-13.1c-11-9.9-15.2-22.7-17.9-31.1c-4-12.3-4.2-22.3-4.5-33.7c-0.3-9.3-0.4-21.1,3.1-36
			c3.5-15.1,9.4-26.8,13.9-34.5c3.9-6.4,12.4-19.3,26.8-30.7c13.7-10.8,22.3-12.1,25-12.5c0.8-0.1,1.9-0.2,3-0.3
			c1.2,0.1,2.2,0.1,3,0.3c2.7,0.4,11.4,1.7,25,12.5c14.4,11.4,22.9,24.3,26.8,30.7c4.6,7.7,10.4,19.3,14,34.5
			C-936.2,313.5-936.4,325.3-936.7,334.6z"/>
		<path class="st21" d="M-891.5,401.3c0,0.6,0,2.1-0.2,3.9c-0.3,3.5-0.8,6.1-1.2,7.8c-0.3,1.3-0.5,2.2-0.6,2.5c0,0-0.7,2.7-1.5,5.1
			c-1.5,4.4-4.3,9.2-4.9,10.1c-3.6,6-7.3,10.3-9.2,12.3c-5.3,5.6-10.1,9-11.5,9.9c-12.4,8.5-24.9,10.6-31.1,11.2
			c-1.4,0.1-3,0.3-4.7,0.4c-3.7,0.2-8.3,0.1-13.7-1.1c-13-2.9-21.4-10.2-23.3-11.9c-0.1-0.1-0.6-0.6-1.3-1.3
			c-2.8-2.9-9.4-10.5-12.9-21c-3.5,10.5-10.1,18.1-13,21c-0.7,0.7-1.2,1.2-1.3,1.3c-1.9,1.8-10.3,9-23.3,11.9
			c-7.3,1.6-13.2,1.2-17.4,0.8c-0.3,0-0.6-0.1-1-0.1c-6.1-0.6-18.7-2.7-31.1-11.2c-1.3-0.9-6.2-4.3-11.5-9.9
			c-1.9-2.1-5.6-6.3-9.2-12.3c-0.5-0.9-3.4-5.7-4.9-10.1c-0.8-2.4-1.5-5.1-1.5-5.1c-0.1-0.3-0.3-1.2-0.6-2.5
			c-0.3-1.7-0.9-4.3-1.2-7.8c-0.2-1.9-0.2-3.3-0.2-3.9c0-0.6,0-2.3,0.1-4.5c0.1-2.4,0.2-3.7,0.4-4.4c0.8-2.8,4.1-6.5,8.5-6.2
			c3.7,0.2,6.9,3,7.8,6.8c-0.1,1.3-0.1,3.3,0,5.7c0.6,12.1,5.1,20.8,6.4,23.3c4.5,8.3,10.1,13.2,11.2,14.2
			c6.3,5.5,12.5,7.9,15.3,8.9c3.2,1.1,11.1,3.7,21.2,2.2c9.8-1.5,16.3-6.1,20.5-9c3.9-2.8,6-5.1,7.2-6.6c0.9-1.2,3-3.9,4.5-8
			c1.9-4.7,2.1-8.7,2.3-11v-0.2c2.6,0.1,5.3,0.1,7.9,0.2h0.3c0.4,0,0.8,0,1.3,0s1.1,0,1.6,0c0.6,0,1.2,0,1.7,0
			c2.7,0,5.5-0.1,8.2-0.2v0.2c0.1,2.3,0.4,6.3,2.3,11c1.6,4,3.6,6.8,4.5,8c1.2,1.6,3.3,3.9,7.2,6.6c4.1,3,10.6,7.5,20.5,9
			c10.1,1.5,18-1.1,21.2-2.2c2.9-1,9-3.5,15.3-8.9c1.1-1,6.7-5.9,11.2-14.2c1.4-2.5,5.8-11.2,6.5-23.3c0.1-2.4,0.1-4.3,0-5.7
			c0.9-3.9,4.1-6.6,7.8-6.8c4.5-0.3,7.7,3.5,8.5,6.2c0.2,0.8,0.3,2,0.4,4.4C-891.5,399-891.5,400.6-891.5,401.3z"/>
		<path class="st22" d="M-964.1,526.2c-0.5,17.9-23.4,34.6-45.2,34.4c-21.4-0.2-44.1-16.5-44.3-34.4c-0.2-12.1,10-21.4,14-25.1
			c2.8-2.6,13.6-12.2,30.3-12.5c19.7-0.3,32.1,12.6,34.1,14.8C-971.5,507.4-963.9,515.6-964.1,526.2z"/>
		
			<ellipse transform="matrix(0.9035 -0.4286 0.4286 0.9035 -312.5686 -388.5662)" class="st23" cx="-1019.1" cy="499.8" rx="8.3" ry="4.7"/>
		<path class="st24" d="M-1086.8,449.8c-0.6,0.6-3,3-0.8,13.8c0.6,2.9,3.6,21.5,9.9,21.4c4.2-0.1,8.2-7.7,11-16.3
			c2.2-6.7,3.6-11.4,1.1-15c-2.2-3.2-6.2-4-10-4.7C-1079.4,448.3-1084.1,447.4-1086.8,449.8z"/>
		<path class="st24" d="M-932.2,449.8c0.6,0.6,3,3,0.8,13.8c-0.6,2.9-3.6,21.5-9.9,21.4c-4.2-0.1-8.2-7.7-11-16.3
			c-2.2-6.7-3.6-11.4-1.1-15c2.2-3.2,6.2-4,10-4.7C-939.5,448.3-934.9,447.4-932.2,449.8z"/>
		
			<ellipse transform="matrix(0.9476 -0.3196 0.3196 0.9476 -49.6837 -352.7616)" class="st25" cx="-1099.7" cy="-25" rx="38.2" ry="15.7"/>
		<circle class="st25" cx="-1147.9" cy="-3" r="6.3"/>
	</g>
</g>
</svg>
