<?xml version="1.0" encoding="utf-8"?>
<!-- Generator: Adobe Illustrator 26.0.3, SVG Export Plug-In . SVG Version: 6.00 Build 0)  -->
<svg version="1.1" id="Layer_1" xmlns="http://www.w3.org/2000/svg" xmlns:xlink="http://www.w3.org/1999/xlink" x="0px" y="0px"
	 viewBox="0 0 1500 1500" style="enable-background:new 0 0 1500 1500;" xml:space="preserve">
<style type="text/css">
	.st0{fill:none;stroke:#F0510F;stroke-width:30;stroke-miterlimit:10;}
	.st1{fill:#FFFFFF;}
</style>
<path class="st0" d="M1250,1450H250c-110.5,0-200-89.5-200-200V250c0-110.5,89.5-200,200-200h1000c110.5,0,200,89.5,200,200v1000
	C1450,1360.5,1360.5,1450,1250,1450z"/>
<g>
	<path class="st1" d="M1246.8,1248.7c-332,0-662.1,0-993.5,0c-11.7-69.4,8.4-128.4,52.4-180.5c72.9-86.4,168-135.7,276.3-159.2
		c172.2-37.3,340.2-26.7,495.7,63.3c43.2,25,81.4,60.9,116.3,97.2C1240.5,1118.1,1257.8,1178.9,1246.8,1248.7z"/>
	
		<ellipse transform="matrix(0.7071 -0.7071 0.7071 0.7071 -154.0383 685.0884)" class="st1" cx="750" cy="528.5" rx="277.2" ry="277.2"/>
</g>
</svg>
