<?xml version="1.0" encoding="utf-8"?>
<!-- Generator: Adobe Illustrator 26.0.3, SVG Export Plug-In . SVG Version: 6.00 Build 0)  -->
<svg version="1.1" id="Layer_1" xmlns="http://www.w3.org/2000/svg" xmlns:xlink="http://www.w3.org/1999/xlink" x="0px" y="0px"
	 viewBox="0 0 1500 1500" style="enable-background:new 0 0 1500 1500;" xml:space="preserve">
<style type="text/css">
	.st0{fill:none;stroke:#F0510F;stroke-width:30;stroke-miterlimit:10;}
	.st1{fill:#FFFFFF;}
</style>
<path class="st0" d="M1250,1450H250c-110.5,0-200-89.5-200-200V250c0-110.5,89.5-200,200-200h1000c110.5,0,200,89.5,200,200v1000
	C1450,1360.5,1360.5,1450,1250,1450z"/>
<path class="st1" d="M632.7,788c24.5,29.8,47.9,58.3,72.3,87.9c-50.6,49.2-98.3,99.2-170.2,112.6
	c-159.9,29.8-296.5-96.1-283.9-258.3C264.4,555,439.4,455.8,615.9,530.3C686.4,560,736.1,615,781.2,674.6
	c32.8,43.3,65.2,87.2,100.8,128.2c37.1,42.8,84,67.3,142.8,53c44.7-10.8,75.8-39,85.1-84.5c9.9-48.6-7.3-90.1-47.3-119.3
	c-38.2-27.8-79.7-26.9-118.8-1.9c-26.5,16.9-50.3,38-77.3,58.6c-22.3-28.1-44.8-56.3-67.8-85.3c49.9-52.2,98.8-101.2,173.2-114.8
	c132.7-24.3,262.5,75.8,276.5,210.3c12.1,116.3-48.7,218.8-143.9,254.4c-98.3,36.8-194.6,27.8-278.3-38.1
	c-39.8-31.3-71.9-72.8-105.8-111.3c-39-44.2-74.7-91.3-114.3-134.7c-44.3-48.3-98.3-62.6-146.7-42c-43.7,18.6-66.7,53.2-70,99.9
	c-3.4,47.4,15.9,84.4,58.1,106.8c41.8,22.2,83.3,18.4,120.9-10.9C590.3,826.1,610.6,807,632.7,788z"/>
</svg>
