<?xml version="1.0" encoding="utf-8"?>
<!-- Generator: Adobe Illustrator 26.0.3, SVG Export Plug-In . SVG Version: 6.00 Build 0)  -->
<svg version="1.1" id="Layer_1" xmlns="http://www.w3.org/2000/svg" xmlns:xlink="http://www.w3.org/1999/xlink" x="0px" y="0px"
	 viewBox="0 0 1500 1500" style="enable-background:new 0 0 1500 1500;" xml:space="preserve">
<style type="text/css">
	.st0{fill:#FFFFFF;}
</style>
<path class="st0" d="M574.2,806.9c36.7,44.6,71.8,87.3,108.3,131.7c-75.8,73.7-147.1,148.6-254.9,168.7
	C188,1151.8-16.6,963.4,2.2,720.5C22.6,458,284.7,309.4,549.2,421c105.6,44.6,180,126.8,247.7,216.1c49.2,64.9,97.6,130.6,150.9,192
	c55.6,64.1,125.8,100.7,213.9,79.3c66.9-16.2,113.6-58.4,127.5-126.5c14.8-72.8-10.9-134.9-70.9-178.6
	c-57.2-41.6-119.4-40.3-177.9-2.9c-39.7,25.4-75.4,56.9-115.7,87.8c-33.5-42.1-67-84.3-101.5-127.6
	c74.8-78.2,147.9-151.5,259.4-171.9c198.7-36.4,393.2,113.4,414.2,314.9c18.1,174.1-72.9,327.7-215.6,381
	c-147.3,55-291.4,41.7-416.8-57.1c-59.6-47-107.7-109.1-158.5-166.6C647.4,794.8,594,724.2,534.5,659.2
	c-66.2-72.4-147.2-93.8-219.7-62.9C249.4,624.2,215,675.9,210,746c-5.1,71.1,23.9,126.5,87,159.9c62.7,33.2,124.8,27.6,181.1-16.3
	C510.8,864,541.2,835.4,574.2,806.9z"/>
</svg>
