<?xml version="1.0" encoding="utf-8"?>
<!-- Generator: Adobe Illustrator 26.0.3, SVG Export Plug-In . SVG Version: 6.00 Build 0)  -->
<svg version="1.1" id="Layer_1" xmlns="http://www.w3.org/2000/svg" xmlns:xlink="http://www.w3.org/1999/xlink" x="0px" y="0px"
	 viewBox="0 0 1500 1500" style="enable-background:new 0 0 1500 1500;" xml:space="preserve">
<style type="text/css">
	.st0{fill:none;stroke:#F0510F;stroke-width:30;stroke-miterlimit:10;}
	.st1{fill:#FFFFFF;}
</style>
<path class="st0" d="M1250,1450H250c-110.5,0-200-89.5-200-200V250c0-110.5,89.5-200,200-200h1000c110.5,0,200,89.5,200,200v1000
	C1450,1360.5,1360.5,1450,1250,1450z"/>
<path class="st1" d="M413.8,912.1c69-12.7,138.1-25.4,206.3-38c48.7,82.6,107.1,110.9,187.3,87.3c16.4-4.8,34.9-23.2,40.6-39.5
	c8.3-24-9.2-43.4-32.7-50.3c-44.9-13.2-90.8-23.1-135.9-35.8c-29.7-8.4-58.7-18.9-87.8-29.3C500.9,774,453.2,707,449.1,613.4
	c-4-91.5,33.2-167.1,112.8-215.8c28.9-17.7,62.7-29.7,95.9-37.2c26.7-6,34.7-16.7,32.3-42.2c-2-21.8-0.4-44-0.4-68.1
	c38.8,0,74.2,0,114.3,0c0,32.2,0,64.8,0,99.2c121.3,17,214.7,67.1,259.7,188.7c-62.3,19.7-123.2,39-187.9,59.4
	c-29.7-61.8-80.6-85.4-148-75.2c-24.9,3.7-46.4,12.7-50,41.1c-4,31.2,16.5,44.6,42.4,51.5c60.8,16.1,121.8,31.8,182.9,47.1
	c127.9,31.8,177.5,121.7,182.5,210.6c6.2,109.9-57.7,202.9-167.9,245.7c-28.5,11.1-59.9,14.5-88.9,24.6c-9.5,3.2-21.2,15.7-22.2,25
	c-3,26.6-1.1,53.7-1.1,82.3c-39.3,0-74.7,0-116,0c0-24.5-1.4-48.8,0.4-72.8c1.8-24.7-6.9-33.3-32.2-37.2
	C531.9,1120.2,436,1029.7,413.8,912.1z"/>
</svg>
