<?xml version="1.0" encoding="utf-8"?>
<!-- Generator: Adobe Illustrator 26.0.3, SVG Export Plug-In . SVG Version: 6.00 Build 0)  -->
<svg version="1.1" id="Layer_1" xmlns="http://www.w3.org/2000/svg" xmlns:xlink="http://www.w3.org/1999/xlink" x="0px" y="0px"
	 viewBox="0 0 1500 1500" style="enable-background:new 0 0 1500 1500;" xml:space="preserve">
<style type="text/css">
	.st0{fill:none;stroke:#F0510F;stroke-width:30;stroke-miterlimit:10;}
	.st1{fill:#FFFFFF;}
</style>
<path class="st0" d="M1250,1450H250c-110.5,0-200-89.5-200-200V250c0-110.5,89.5-200,200-200h1000c110.5,0,200,89.5,200,200v1000
	C1450,1360.5,1360.5,1450,1250,1450z"/>
<g>
	<path class="st1" d="M332.8,1167.2c13.6,0,23.6,0,33.5,0c273.4,0,546.7,0,820.1,0c7,0,14-0.3,20.9,0.1
		c26.5,1.8,43.2,18.5,42.6,42.5c-0.5,23.3-18.4,39.8-44.7,40c-62,0.3-123.9,0.1-185.9,0.1c-238.5,0-477,0-715.5,0
		c-40.9,0-53.8-13-53.8-54.2c0-297.4,0-594.7,0-892.1c0-4.6-0.2-9.3,0.1-13.9c1.5-21.8,17.3-38.1,38.1-39.5
		c21.5-1.5,38.7,11.6,42.9,33.9c1.7,9,1.5,18.5,1.5,27.7c0.1,274.1,0.1,548.3,0.1,822.4C332.8,1144.1,332.8,1154,332.8,1167.2z"/>
	<path class="st1" d="M934,419c4.8,1.2,9.7,2.1,14.3,3.7c22.3,7.7,37.1,28.7,37.1,52.3c0,215.5,0,431,0,646.4c0,1.3-0.2,2.7,0,4
		c0.6,4.3-1,5.6-5.4,5.6c-51.7-0.2-103.4-0.1-155.2-0.1c-6.8,0-6.8,0-6.8-7.1c0-147.2,0-294.5,0-441.7c0-68.4,0-136.8,0-205.2
		c0-29.9,19.4-52.5,49.3-57.1c0.8-0.1,1.5-0.5,2.3-0.8C891.1,419,912.6,419,934,419z"/>
	<path class="st1" d="M595.2,889.5c0,78.3,0,156.6,0,234.9c0,6.5,0,6.5,6.4,6.5c51.5,0,103.1-0.1,154.6,0.1c4.8,0,6.4-0.9,6.4-6.2
		c-0.1-155-0.3-309.9,0.1-464.9c0.1-31.2-20.8-53.5-45.4-58.1c-1.3-0.2-2.6-0.6-3.9-0.6c-22.6-0.1-45.3-1.2-67.9,0.1
		c-29.1,1.8-50.4,26.4-50.4,55.6C595.2,734.5,595.2,812,595.2,889.5C595.2,889.5,595.2,889.5,595.2,889.5z"/>
	<path class="st1" d="M1208.5,1130.9c-2.5,0-4.1,0-5.8,0c-52.1,0-104.1-0.1-156.2,0.1c-4.4,0-5.6-1.2-5.6-5.6
		c0.1-91,0-182.1,0.1-273.1c0-31.7,24.6-56.1,56.3-56.3c18.7-0.1,37.3-0.2,56,0c30.5,0.3,55,25.2,55,55.6c0,90.9,0,181.8,0,272.6
		C1208.5,1126.2,1208.5,1128.2,1208.5,1130.9z"/>
	<path class="st1" d="M456.1,1130.9c26.1,0,52.2-0.1,78.3,0.1c4,0,5.4-0.9,5.4-5.2c-0.1-44.6,0-89.2-0.1-133.8
		c-0.1-31.7-24.7-56.2-56.3-56.4c-18.7-0.1-37.3-0.1-56,0c-29.9,0.1-55,25.1-55.1,55.1c-0.1,45.1,0,90.2-0.1,135.3
		c0,3.9,1.1,5.1,5,5C403.5,1130.8,429.8,1130.9,456.1,1130.9z"/>
</g>
</svg>
